<?xml version="1.0" encoding="UTF-8"?>
<!DOCTYPE svg PUBLIC "-//W3C//DTD SVG 1.1//EN" "http://www.w3.org/Graphics/SVG/1.1/DTD/svg11.dtd">
<svg xmlns="http://www.w3.org/2000/svg" xml:space="preserve" width="480px" height="420px" version="1.1" style="shape-rendering:geometricPrecision; text-rendering:geometricPrecision; image-rendering:optimizeQuality; fill-rule:evenodd; clip-rule:evenodd"
viewBox="0 0 480 420"
 xmlns:xlink="http://www.w3.org/1999/xlink">
 <defs>
  <style type="text/css">
   <![CDATA[
    .fil3 {fill:white}
    .fil2 {fill:#CCCCCC;fill-rule:nonzero}
    .fil0 {fill:#FFD153;fill-rule:nonzero}
    .fil1 {fill:white;fill-rule:nonzero}
   ]]>
  </style>
 </defs>
 <g id="Layer_x0020_1">
  <metadata id="CorelCorpID_0Corel-Layer"/>
  <path class="fil0" d="M175 137c2,2 2,6 0,8 -2,2 -6,2 -8,0l-63 -63c-2,-2 -2,-6 0,-8 3,-2 6,-2 9,0l62 63zm-33 67c4,0 6,3 6,6 0,3 -2,6 -6,6l-88 0c-4,0 -6,-3 -6,-6 0,-3 2,-6 6,-6l88 0zm225 -130c3,-2 6,-2 9,0 2,2 2,6 0,8l-63 63c-2,2 -6,2 -8,0 -2,-2 -2,-6 0,-8l62 -63zm-200 201c2,-2 6,-2 8,0 2,2 2,6 0,8l-62 63c-3,2 -6,2 -9,0 -2,-2 -2,-6 0,-8l63 -63zm-15 -108c3,2 4,5 3,8 -1,3 -5,4 -8,3l-33 -14c-3,-1 -4,-4 -3,-7 1,-3 5,-5 8,-3l33 13zm134 -83c1,-3 4,-4 7,-3 3,1 5,5 3,8l-13 33c-1,3 -5,4 -8,3 -3,-1 -4,-5 -3,-8l14 -33zm-89 214c1,-3 5,-4 8,-3 3,1 4,5 3,8l-14 33c-1,3 -4,4 -7,3 -3,-1 -5,-5 -4,-8l14 -33zm164 -144c3,-2 6,0 8,3 1,3 -1,6 -4,7l-32 14c-3,1 -7,0 -8,-3 -1,-3 0,-7 3,-8l33 -13zm-214 88c3,-1 7,0 8,3 1,3 0,7 -3,8l-33 14c-3,1 -6,-1 -8,-4 -1,-3 0,-6 3,-7l33 -14zm61 -125c1,3 0,7 -3,8 -3,1 -7,0 -8,-3l-13 -33c-2,-3 0,-6 3,-8 3,-1 6,0 8,4l13 32zm26 -93c0,-4 3,-6 6,-6 3,0 6,2 6,6l0 88c0,3 -3,6 -6,6 -3,0 -6,-3 -6,-6l0 -88zm6 260c41,0 74,-33 74,-74 0,-41 -33,-74 -74,-74 -41,0 -74,33 -74,74 0,41 33,74 74,74z"/>
  <g id="_303098496">
   <path class="fil1" d="M447 273c8,8 13,19 13,31 0,12 -5,24 -13,32 -8,8 -19,13 -32,13l-80 0 -66 0c-9,0 -16,-4 -21,-9l0 0c-6,-5 -9,-13 -9,-21 0,-8 3,-16 9,-21 5,-5 11,-8 19,-9l0 0c0,-3 0,-6 0,-9 0,-19 7,-36 20,-48 12,-13 29,-20 48,-20 17,0 32,6 44,16 11,9 18,21 22,34 1,0 2,-1 3,-1 4,-1 8,-1 11,-1 13,0 24,5 32,13z"/>
   <path class="fil2" d="M448 304c0,-9 -4,-17 -10,-23 -5,-6 -14,-10 -23,-10 -3,0 -5,1 -8,1 -1,1 -3,1 -4,2 0,0 0,0 0,1 0,2 0,3 0,5 0,3 0,6 0,9 -1,3 -1,5 -2,8 -1,3 -4,5 -7,4 -3,0 -5,-4 -4,-7 0,-2 1,-4 1,-7 0,-2 1,-4 1,-7 0,-1 0,-3 -1,-4 0,-2 0,-3 0,-5 0,0 0,0 0,0 -2,-14 -9,-25 -19,-34 -10,-8 -23,-13 -37,-13 -16,0 -30,6 -40,16 -10,10 -17,25 -17,40 0,3 0,5 1,7 0,3 0,5 1,7 1,3 -1,7 -4,7 -1,1 -2,1 -3,0 -1,0 -2,0 -2,0 -1,0 -2,0 -2,0 -5,0 -10,2 -13,5 -3,3 -5,8 -5,13 0,5 2,9 5,13l0 0 0 0c3,3 8,5 13,5l66 0 80 0c9,0 18,-4 23,-10 6,-6 10,-14 10,-23z"/>
  </g>
  <g id="snowflakes">
   <polygon id="rect3428" class="fil3" points="279,352 279,360 272,353 269,356 279,367 279,378 269,372 266,358 261,360 264,369 257,365 255,369 261,373 252,375 253,380 267,376 277,382 267,387 253,384 252,388 261,391 255,394 257,398 264,395 261,404 266,405 269,391 279,386 279,397 269,407 272,410 279,404 279,411 284,411 284,404 290,410 294,407 284,397 284,386 293,391 297,405 301,404 299,395 305,398 308,394 301,391 311,388 309,384 296,387 286,382 296,376 309,380 311,375 301,373 308,369 305,365 299,369 301,360 297,358 293,372 284,378 284,367 294,356 290,353 284,360 284,352 "/>
   <polygon id="rect3428_0" class="fil3" points="342,353 342,360 335,353 332,357 342,367 342,378 332,372 329,359 324,360 327,369 320,365 318,369 324,373 315,376 316,380 330,376 340,382 330,387 316,384 315,388 324,391 318,395 320,399 327,395 324,404 329,405 332,392 342,386 342,397 332,407 335,411 342,404 342,411 347,411 347,404 354,411 357,407 347,397 347,386 356,392 360,405 365,404 362,395 369,399 371,395 365,391 374,388 373,384 359,387 349,382 359,376 373,380 374,376 365,373 371,369 369,365 362,369 365,360 360,359 356,372 347,378 347,367 357,357 354,353 347,360 347,353 "/>
   <polygon id="rect3428_1" class="fil3" points="405,352 405,360 398,353 395,356 405,367 405,378 396,372 392,358 387,360 390,369 383,365 381,369 388,373 378,375 379,380 393,376 403,382 393,387 379,384 378,388 388,391 381,394 383,398 390,395 387,404 392,405 396,391 405,386 405,397 395,407 398,410 405,404 405,411 410,411 410,404 417,410 420,407 410,397 410,386 420,391 423,405 428,404 425,395 432,398 434,394 428,391 437,388 436,384 422,387 412,382 422,376 436,380 437,375 428,373 434,369 432,365 425,369 428,360 423,358 420,372 410,378 410,367 420,356 417,353 410,360 410,352 "/>
  </g>
 </g>
</svg>
