<?xml version="1.0" encoding="UTF-8"?>
<!DOCTYPE svg PUBLIC "-//W3C//DTD SVG 1.1//EN" "http://www.w3.org/Graphics/SVG/1.1/DTD/svg11.dtd">

<svg xmlns="http://www.w3.org/2000/svg" xml:space="preserve" width="480px" height="420px" version="1.1" style="shape-rendering:geometricPrecision; text-rendering:geometricPrecision; image-rendering:optimizeQuality; fill-rule:evenodd; clip-rule:evenodd"
viewBox="0 0 480 420"
 xmlns:xlink="http://www.w3.org/1999/xlink">
 <defs>
  <style type="text/css">
   <![CDATA[
    .fil0 {fill:#FFD153;fill-rule:nonzero}
    .fil1 {fill:white;fill-opacity:0.000000}
    .fil2 {fill:white;fill-opacity:0.101961}
    .fil3 {fill:white;fill-opacity:0.200000}
    .fil4 {fill:white;fill-opacity:0.301961}
    .fil5 {fill:white;fill-opacity:0.400000}
    .fil6 {fill:white;fill-opacity:0.501961}
    .fil7 {fill:white;fill-opacity:0.600000}
    .fil8 {fill:white;fill-opacity:0.701961}
    .fil9 {fill:white;fill-opacity:0.800000}
    .fil10 {fill:white;fill-opacity:0.901961}
   ]]>
  </style>
 </defs>
 <g id="Layer_x0020_1">
  <metadata id="CorelCorpID_0Corel-Layer"/>
  <path class="fil0" d="M376 338c2,2 2,6 0,8 -3,2 -6,2 -9,0l-62 -63c-2,-2 -2,-6 0,-8 2,-2 6,-2 8,0l63 63zm-201 -201c2,2 2,6 0,8 -2,2 -6,2 -8,0l-63 -63c-2,-2 -2,-6 0,-8 3,-2 6,-2 9,0l62 63zm251 67c4,0 6,3 6,6 0,3 -2,6 -6,6l-88 0c-4,0 -6,-3 -6,-6 0,-3 2,-6 6,-6l88 0zm-284 0c4,0 6,3 6,6 0,3 -2,6 -6,6l-88 0c-4,0 -6,-3 -6,-6 0,-3 2,-6 6,-6l88 0zm225 -130c3,-2 6,-2 9,0 2,2 2,6 0,8l-63 63c-2,2 -6,2 -8,0 -2,-2 -2,-6 0,-8l62 -63zm-200 201c2,-2 6,-2 8,0 2,2 2,6 0,8l-62 63c-3,2 -6,2 -9,0 -2,-2 -2,-6 0,-8l63 -63zm198 -19c4,1 5,4 4,7 -2,3 -5,5 -8,4l-33 -14c-3,-1 -4,-5 -3,-8 1,-3 5,-4 8,-3l32 14zm-213 -89c3,2 4,5 3,8 -1,3 -5,4 -8,3l-33 -14c-3,-1 -4,-4 -3,-7 1,-3 5,-5 8,-3l33 13zm134 -83c1,-3 4,-4 7,-3 3,1 5,5 3,8l-13 33c-1,3 -5,4 -8,3 -3,-1 -4,-5 -3,-8l14 -33zm-89 214c1,-3 5,-4 8,-3 3,1 4,5 3,8l-14 33c-1,3 -4,4 -7,3 -3,-1 -5,-5 -4,-8l14 -33zm164 -144c3,-2 6,0 8,3 1,3 -1,6 -4,7l-32 14c-3,1 -7,0 -8,-3 -1,-3 0,-7 3,-8l33 -13zm-214 88c3,-1 7,0 8,3 1,3 0,7 -3,8l-33 14c-3,1 -6,-1 -8,-4 -1,-3 0,-6 3,-7l33 -14zm149 89c2,3 0,7 -3,8 -3,1 -6,0 -7,-3l-14 -33c-1,-3 0,-7 3,-8 3,-1 7,0 8,3l13 33zm-88 -214c1,3 0,7 -3,8 -3,1 -7,0 -8,-3l-13 -33c-2,-3 0,-6 3,-8 3,-1 6,0 8,4l13 32zm26 -93c0,-4 3,-6 6,-6 3,0 6,2 6,6l0 88c0,3 -3,6 -6,6 -3,0 -6,-3 -6,-6l0 -88zm0 284c0,-3 3,-6 6,-6 3,0 6,3 6,6l0 88c0,4 -3,6 -6,6 -3,0 -6,-2 -6,-6l0 -88zm6 -24c41,0 74,-33 74,-74 0,-41 -33,-74 -74,-74 -41,0 -74,33 -74,74 0,41 33,74 74,74z"/>
  <g id="_228455336">
   <polygon class="fil1" points="480,221 0,221 0,210 480,210 "/>
   <g>
    <path class="fil2" d="M480 242c-160,0 -320,0 -480,0 0,-4 0,-7 0,-11 160,0 320,0 480,0 0,4 0,7 0,11z"/>
    <path class="fil3" d="M480 263c-160,0 -320,0 -480,0 0,-4 0,-7 0,-11 160,0 320,0 480,0 0,4 0,7 0,11z"/>
    <path class="fil4" d="M480 284c-160,0 -320,0 -480,0 0,-4 0,-7 0,-11 160,0 320,0 480,0 0,4 0,7 0,11z"/>
    <path class="fil5" d="M480 305c-160,0 -320,0 -480,0 0,-4 0,-7 0,-11 160,0 320,0 480,0 0,4 0,7 0,11z"/>
    <path class="fil6" d="M480 326c-160,0 -320,0 -480,0 0,-4 0,-7 0,-11 160,0 320,0 480,0 0,4 0,7 0,11z"/>
    <path class="fil7" d="M480 347c-160,0 -320,0 -480,0 0,-4 0,-7 0,-11 160,0 320,0 480,0 0,4 0,7 0,11z"/>
    <path class="fil8" d="M480 368c-160,0 -320,0 -480,0 0,-4 0,-7 0,-11 160,0 320,0 480,0 0,4 0,7 0,11z"/>
    <path class="fil9" d="M480 389c-160,0 -320,0 -480,0 0,-4 0,-7 0,-11 160,0 320,0 480,0 0,4 0,7 0,11z"/>
   </g>
   <polygon class="fil10" points="480,410 0,410 0,399 480,399 "/>
  </g>
 </g>
</svg>
