<?xml version="1.0" encoding="UTF-8"?>
<!DOCTYPE svg PUBLIC "-//W3C//DTD SVG 1.1//EN" "http://www.w3.org/Graphics/SVG/1.1/DTD/svg11.dtd">

<svg xmlns="http://www.w3.org/2000/svg" xml:space="preserve" width="480px" height="420px" version="1.1" style="shape-rendering:geometricPrecision; text-rendering:geometricPrecision; image-rendering:optimizeQuality; fill-rule:evenodd; clip-rule:evenodd"
viewBox="0 0 480 420"
 xmlns:xlink="http://www.w3.org/1999/xlink">
 <defs>
  <style type="text/css">
   <![CDATA[
    .str3 {stroke:#062845;stroke-width:11.811}
    .str7 {stroke:#8394A2;stroke-width:11.811}
    .str0 {stroke:#CCCCCC;stroke-width:8.85827;stroke-linecap:round;stroke-linejoin:round}
    .str4 {stroke:#E6E6E6;stroke-width:8.85827;stroke-linecap:round;stroke-linejoin:round}
    .str1 {stroke:#CCCCCC;stroke-width:5.90551;stroke-linecap:round;stroke-linejoin:round}
    .str5 {stroke:#E6E6E6;stroke-width:5.90551;stroke-linecap:round;stroke-linejoin:round}
    .str2 {stroke:#CCCCCC;stroke-width:2.95276;stroke-linecap:round;stroke-linejoin:round}
    .str6 {stroke:#E6E6E6;stroke-width:2.95276;stroke-linecap:round;stroke-linejoin:round}
    .fil0 {fill:none}
    .fil16 {fill:none;fill-rule:nonzero}
    .fil1 {fill:#023557}
    .fil14 {fill:#819AAB}
    .fil2 {fill:#FFF2C9}
    .fil15 {fill:#FFF9E4}
    .fil13 {fill:#FEFEFE;fill-rule:nonzero}
    .fil3 {fill:white;fill-opacity:0.000000}
    .fil4 {fill:white;fill-opacity:0.101961}
    .fil5 {fill:white;fill-opacity:0.200000}
    .fil6 {fill:white;fill-opacity:0.301961}
    .fil7 {fill:white;fill-opacity:0.400000}
    .fil8 {fill:white;fill-opacity:0.501961}
    .fil9 {fill:white;fill-opacity:0.600000}
    .fil10 {fill:white;fill-opacity:0.701961}
    .fil11 {fill:white;fill-opacity:0.800000}
    .fil12 {fill:white;fill-opacity:0.901961}
   ]]>
  </style>
   <clipPath id="id0" style="clip-rule:nonzero">
    <path d="M340 0l0 2c-2,33 -17,58 -38,74 -21,16 -49,23 -76,23l-1 0c-20,27 -56,44 -96,51 -43,8 -91,5 -129,-6l0 -25c36,12 83,16 125,8 37,-7 69,-22 84,-46 2,-3 6,-6 11,-5 1,0 3,0 6,0 23,0 45,-6 62,-19 16,-12 27,-31 28,-56l0 -1 24 0zm-95 0c2,8 2,15 1,22 -1,14 -6,25 -14,34 -8,8 -18,14 -30,18 -8,3 -16,4 -25,4 -17,19 -41,31 -69,36 -35,7 -75,6 -108,0l0 -24c31,6 70,8 103,1 25,-5 46,-15 59,-32 2,-3 6,-5 11,-5 7,1 15,0 22,-3 8,-2 15,-6 19,-11 5,-5 8,-12 9,-20 0,-6 0,-12 -3,-20l25 0zm-93 0c1,3 2,6 2,8 2,12 0,23 -6,34 -6,11 -16,20 -30,28 0,0 -1,0 -1,0 -25,13 -63,20 -117,14l0 -24c50,6 85,1 106,-11 0,0 1,0 1,0 10,-5 17,-12 21,-18 3,-6 4,-13 3,-18 -1,-5 -3,-9 -6,-13l27 0z"/>
   </clipPath>
 </defs>
 <g id="Layer_x0020_1">
  <metadata id="CorelCorpID_0Corel-Layer"/>
  <g id="_233629472">
   <path class="fil0 str0" d="M416 59l-7 23m15 -8l-23 -6"/>
   <path class="fil0 str1" d="M90 105l-12 45m29 -16l-45 -12"/>
   <path class="fil0 str2" d="M282 13l-12 45m28 -16l-45 -12"/>
   <path class="fil0 str0" d="M59 58l-6 23m14 -9l-23 -6"/>
   <path class="fil0 str2" d="M91 332l-12 45m28 -17l-45 -12"/>
   <path class="fil0 str2" d="M419 135l-12 45m29 -16l-45 -12"/>
  </g>
  <g id="_233629328">
   <path class="fil1 str3" d="M382 210c0,-79 -63,-142 -142,-142 -79,0 -142,63 -142,142 0,79 63,142 142,142 79,0 142,-63 142,-142z"/>
   <path class="fil2 str3" d="M254 69c-4,0 -9,0 -14,0 -78,0 -141,63 -141,141 0,78 63,141 141,141 5,0 9,0 13,0 18,-3 14,-21 8,-25 -29,-22 -49,-66 -49,-116 0,-51 20,-94 49,-117 7,-2 9,-21 -7,-24z"/>
  </g>
  <g id="_233633288">
   <polygon class="fil3" points="480,221 0,221 0,210 480,210 "/>
   <g>
    <path class="fil4" d="M480 242c-160,0 -320,0 -480,0 0,-4 0,-7 0,-11 160,0 320,0 480,0 0,4 0,7 0,11z"/>
    <path class="fil5" d="M480 263c-160,0 -320,0 -480,0 0,-4 0,-7 0,-11 160,0 320,0 480,0 0,4 0,7 0,11z"/>
    <path class="fil6" d="M480 284c-160,0 -320,0 -480,0 0,-4 0,-7 0,-11 160,0 320,0 480,0 0,4 0,7 0,11z"/>
    <path class="fil7" d="M480 305c-160,0 -320,0 -480,0 0,-4 0,-7 0,-11 160,0 320,0 480,0 0,4 0,7 0,11z"/>
    <path class="fil8" d="M480 326c-160,0 -320,0 -480,0 0,-4 0,-7 0,-11 160,0 320,0 480,0 0,4 0,7 0,11z"/>
    <path class="fil9" d="M480 347c-160,0 -320,0 -480,0 0,-4 0,-7 0,-11 160,0 320,0 480,0 0,4 0,7 0,11z"/>
    <path class="fil10" d="M480 368c-160,0 -320,0 -480,0 0,-4 0,-7 0,-11 160,0 320,0 480,0 0,4 0,7 0,11z"/>
    <path class="fil11" d="M480 389c-160,0 -320,0 -480,0 0,-4 0,-7 0,-11 160,0 320,0 480,0 0,4 0,7 0,11z"/>
   </g>
   <polygon class="fil12" points="480,410 0,410 0,399 480,399 "/>
  </g>
  <g style="clip-path:url(#id0)">
   <polygon class="fil13" points="-300,-300 640,-300 640,455 -300,455 "/>
   <g id="Layer_x0020_1_0">
    <metadata id="CorelCorpID_1Corel-Layer"/>
    <g id="_233629472">
     <path id="1" class="fil0 str4" d="M416 59l-7 23m15 -8l-23 -6"/>
     <path class="fil0 str5" d="M90 105l-12 45m29 -16l-45 -12"/>
     <path class="fil0 str6" d="M282 13l-12 45m28 -16l-45 -12"/>
     <path class="fil0 str4" d="M59 58l-6 23m14 -9l-23 -6"/>
     <path class="fil0 str6" d="M91 332l-12 45m28 -17l-45 -12"/>
     <path class="fil0 str6" d="M419 135l-12 45m29 -16l-45 -12"/>
    </g>
    <g id="_233629328">
     <path class="fil14 str7" d="M382 210c0,-79 -63,-142 -142,-142 -79,0 -142,63 -142,142 0,79 63,142 142,142 79,0 142,-63 142,-142z"/>
     <path class="fil15 str7" d="M254 69c-4,0 -9,0 -14,0 -78,0 -141,63 -141,141 0,78 63,141 141,141 5,0 9,0 13,0 18,-3 14,-21 8,-25 -29,-22 -49,-66 -49,-116 0,-51 20,-94 49,-117 7,-2 9,-21 -7,-24z"/>
    </g>
    <g id="_233633288">
     <polygon class="fil3" points="480,221 0,221 0,210 480,210 "/>
     <g>
      <path class="fil4" d="M480 242c-160,0 -320,0 -480,0 0,-4 0,-7 0,-11 160,0 320,0 480,0 0,4 0,7 0,11z"/>
      <path class="fil5" d="M480 263c-160,0 -320,0 -480,0 0,-4 0,-7 0,-11 160,0 320,0 480,0 0,4 0,7 0,11z"/>
      <path class="fil6" d="M480 284c-160,0 -320,0 -480,0 0,-4 0,-7 0,-11 160,0 320,0 480,0 0,4 0,7 0,11z"/>
      <path class="fil7" d="M480 305c-160,0 -320,0 -480,0 0,-4 0,-7 0,-11 160,0 320,0 480,0 0,4 0,7 0,11z"/>
      <path class="fil8" d="M480 326c-160,0 -320,0 -480,0 0,-4 0,-7 0,-11 160,0 320,0 480,0 0,4 0,7 0,11z"/>
      <path class="fil9" d="M480 347c-160,0 -320,0 -480,0 0,-4 0,-7 0,-11 160,0 320,0 480,0 0,4 0,7 0,11z"/>
      <path class="fil10" d="M480 368c-160,0 -320,0 -480,0 0,-4 0,-7 0,-11 160,0 320,0 480,0 0,4 0,7 0,11z"/>
      <path class="fil11" d="M480 389c-160,0 -320,0 -480,0 0,-4 0,-7 0,-11 160,0 320,0 480,0 0,4 0,7 0,11z"/>
     </g>
     <polygon class="fil12" points="480,410 0,410 0,399 480,399 "/>
    </g>
   </g>
  </g>
  <path class="fil16" d="M340 0l0 2c-2,33 -17,58 -38,74 -21,16 -49,23 -76,23l-1 0c-20,27 -56,44 -96,51 -43,8 -91,5 -129,-6l0 -25c36,12 83,16 125,8 37,-7 69,-22 84,-46 2,-3 6,-6 11,-5 1,0 3,0 6,0 23,0 45,-6 62,-19 16,-12 27,-31 28,-56l0 -1 24 0zm-95 0c2,8 2,15 1,22 -1,14 -6,25 -14,34 -8,8 -18,14 -30,18 -8,3 -16,4 -25,4 -17,19 -41,31 -69,36 -35,7 -75,6 -108,0l0 -24c31,6 70,8 103,1 25,-5 46,-15 59,-32 2,-3 6,-5 11,-5 7,1 15,0 22,-3 8,-2 15,-6 19,-11 5,-5 8,-12 9,-20 0,-6 0,-12 -3,-20l25 0zm-93 0c1,3 2,6 2,8 2,12 0,23 -6,34 -6,11 -16,20 -30,28 0,0 -1,0 -1,0 -25,13 -63,20 -117,14l0 -24c50,6 85,1 106,-11 0,0 1,0 1,0 10,-5 17,-12 21,-18 3,-6 4,-13 3,-18 -1,-5 -3,-9 -6,-13l27 0z"/>
 </g>
</svg>
