<?xml version="1.0" encoding="UTF-8"?>
<!DOCTYPE svg PUBLIC "-//W3C//DTD SVG 1.1//EN" "http://www.w3.org/Graphics/SVG/1.1/DTD/svg11.dtd">

<svg xmlns="http://www.w3.org/2000/svg" xml:space="preserve" width="480px" height="420px" version="1.1" style="shape-rendering:geometricPrecision; text-rendering:geometricPrecision; image-rendering:optimizeQuality; fill-rule:evenodd; clip-rule:evenodd"
viewBox="0 0 480 420"
 xmlns:xlink="http://www.w3.org/1999/xlink">
 <defs>
  <style type="text/css">
   <![CDATA[
    .fil1 {fill:#E6E6E6}
    .fil2 {fill:#E6E6E6;fill-rule:nonzero}
    .fil3 {fill:white;fill-rule:nonzero}
    .fil0 {fill:white;fill-rule:nonzero}
    .fil4 {fill:white;fill-opacity:0.000000}
    .fil5 {fill:white;fill-opacity:0.101961}
    .fil6 {fill:white;fill-opacity:0.200000}
    .fil7 {fill:white;fill-opacity:0.301961}
    .fil8 {fill:white;fill-opacity:0.400000}
    .fil9 {fill:white;fill-opacity:0.501961}
    .fil10 {fill:white;fill-opacity:0.600000}
    .fil11 {fill:white;fill-opacity:0.701961}
    .fil12 {fill:white;fill-opacity:0.800000}
    .fil13 {fill:white;fill-opacity:0.901961}
   ]]>
  </style>
   <mask id="id0">
  <linearGradient id="id1" gradientUnits="userSpaceOnUse" x1="280.044" y1="212.872" x2="199.956" y2="-8.08583">
   <stop offset="0" style="stop-opacity:1; stop-color:white"/>
   <stop offset="1" style="stop-opacity:0; stop-color:white"/>
  </linearGradient>
    <rect style="fill:url(#id1)" x="-1" y="-1" width="482" height="207"/>
   </mask>
 </defs>
 <g id="Layer_x0020_1">
  <metadata id="CorelCorpID_0Corel-Layer"/>
  <g id="_226099064">
   <g>
    <path class="fil0" d="M395 337c0,-13 -5,-24 -13,-33 -9,-8 -20,-13 -33,-13 -4,0 -8,0 -12,1 -2,1 -5,2 -7,3 0,1 0,1 0,2 1,3 1,5 1,8 0,3 -1,7 -1,11 -1,4 -1,7 -2,11 -1,3 -4,5 -7,4 -4,-1 -5,-4 -5,-7 1,-3 2,-6 2,-10 1,-3 1,-6 1,-9 0,-3 0,-5 0,-7 -1,-2 -1,-4 -1,-6l0 0c-3,-19 -13,-35 -27,-47 -14,-12 -31,-19 -51,-19 -22,0 -41,9 -55,23 -15,14 -23,34 -23,56 0,3 0,6 0,9 1,4 1,7 2,10 1,3 -1,6 -4,7 -1,0 -2,0 -3,0 -1,0 -2,0 -3,0 -1,-1 -2,-1 -3,-1 -8,0 -14,3 -19,8 -5,5 -8,12 -8,19 0,7 3,14 8,18 5,5 11,8 19,8l89 0 109 0c13,0 24,-5 33,-13 8,-9 13,-20 13,-33zm-5 -41c10,10 17,25 17,41 0,16 -7,30 -17,41 -11,10 -25,17 -41,17l-109 0 -89 0c-11,0 -20,-4 -27,-11 -7,-7 -12,-17 -12,-27 0,-11 5,-20 12,-27 7,-7 16,-11 27,-11l0 0c0,-1 0,-2 -1,-3 0,-4 0,-8 0,-11 0,-25 10,-48 26,-64 17,-17 39,-27 64,-27 23,0 43,8 59,22 14,12 24,28 29,47 2,-1 4,-2 6,-2 5,-2 10,-2 15,-2 16,0 30,6 41,17zm-72 -4l0 0 0 0z"/>
   </g>
   <path class="fil1" d="M395 337c0,-13 -5,-24 -13,-33 -9,-8 -20,-13 -33,-13 -4,0 -8,0 -12,1 -2,1 -5,2 -7,3 0,1 0,1 0,2 1,3 1,5 1,8 0,3 -1,7 -1,11 -1,4 -1,7 -2,11 -1,3 -4,5 -7,4 -4,-1 -5,-4 -5,-7 1,-3 2,-6 2,-10 1,-3 1,-6 1,-9 0,-3 0,-5 0,-7 -1,-2 -1,-4 -1,-6l0 0 0 0c-3,-19 -13,-35 -27,-47 -14,-12 -31,-19 -51,-19 -22,0 -41,9 -55,23 -15,14 -23,34 -23,56 0,3 0,6 0,9 1,4 1,7 2,10 1,3 -1,6 -4,7 -1,0 -2,0 -3,0 -1,0 -2,0 -3,0 -1,-1 -2,-1 -3,-1 -8,0 -14,3 -19,8 -5,5 -8,12 -8,19 0,7 3,14 8,18 5,5 11,8 19,8l89 0 109 0c13,0 24,-5 33,-13 8,-9 13,-20 13,-33z"/>
   <g id="_226084088">
    <path class="fil2" d="M271 312c0,-9 -3,-18 -9,-24 -6,-5 -14,-9 -23,-9 -3,0 -6,0 -8,1 -2,0 -3,1 -5,1 0,1 1,1 1,1 0,2 0,4 0,6 0,2 0,5 -1,8 0,3 -1,6 -1,9 -1,3 -4,5 -8,4 -3,-1 -5,-4 -4,-7 1,-3 1,-5 2,-7 0,-3 0,-5 0,-7 0,-2 0,-3 0,-5 0,-1 -1,-3 -1,-4 0,0 0,-1 0,-1 -2,-13 -9,-25 -19,-33 -10,-9 -23,-14 -37,-14 -15,0 -29,6 -40,17 -10,10 -16,24 -16,40 0,2 0,4 0,7 0,2 1,4 1,7 1,3 -1,6 -4,7 -1,0 -2,0 -3,0 -1,0 -1,0 -2,-1 0,0 -1,0 -2,0 -5,0 -9,2 -13,6 -3,3 -5,7 -5,12 0,5 2,10 5,13l0 0 0 0c4,3 8,5 13,5l66 0 81 0c9,0 17,-3 23,-9 6,-6 9,-14 9,-23z"/>
    <path class="fil0" d="M270 280c8,8 13,19 13,32 0,12 -5,23 -13,31 -8,8 -19,13 -31,13l-81 0 -66 0c-8,0 -16,-3 -21,-9l0 0c-5,-5 -9,-12 -9,-21 0,-8 4,-15 9,-21 5,-5 12,-8 19,-8l0 -1c0,-3 0,-5 0,-8 0,-19 8,-36 20,-49 12,-12 29,-20 48,-20 17,0 33,6 45,17 10,8 18,20 21,33 1,0 3,0 4,-1 3,0 7,-1 11,-1 12,0 23,5 31,13zm1 32c0,-9 -3,-18 -9,-24 -6,-5 -14,-9 -23,-9 -3,0 -6,0 -8,1 -2,0 -3,1 -5,1 0,1 1,1 1,1 0,2 0,4 0,6 0,2 0,5 -1,8 0,3 -1,6 -1,9 -1,3 -4,5 -8,4 -3,-1 -5,-4 -4,-7 1,-3 1,-5 2,-7 0,-3 0,-5 0,-7 0,-2 0,-3 0,-5 0,-1 -1,-3 -1,-4 0,0 0,-1 0,-1 -2,-13 -9,-25 -19,-33 -10,-9 -23,-14 -37,-14 -15,0 -29,6 -40,17 -10,10 -16,24 -16,40 0,2 0,4 0,7 0,2 1,4 1,7 1,3 -1,6 -4,7 -1,0 -2,0 -3,0 -1,0 -1,0 -2,-1 0,0 -1,0 -2,0 -5,0 -9,2 -13,6 -3,3 -5,7 -5,12 0,5 2,10 5,13l0 0 0 0c4,3 8,5 13,5l66 0 81 0c9,0 17,-3 23,-9 6,-6 9,-14 9,-23z"/>
   </g>
  </g>
  <path class="fil3" style="mask:url(#id0)" d="M480 56c-5,0 -10,1 -15,1 5,4 10,8 15,12l0 17c-2,-2 -4,-4 -7,-5 -9,-8 -18,-15 -28,-22 -7,0 -15,1 -23,2 10,7 20,14 31,21 9,7 18,13 27,20l0 9c-4,1 -10,1 -13,-2 -11,-7 -22,-15 -33,-23 -11,-8 -22,-16 -33,-24 -8,1 -17,2 -25,3 12,7 24,15 36,22 11,8 23,16 35,23 3,2 3,6 -2,8 -4,1 -11,1 -15,-1 -12,-8 -25,-17 -38,-25 -13,-8 -27,-17 -40,-25 -9,0 -17,1 -26,2 14,8 27,16 41,24 14,8 27,16 41,24 4,3 3,6 -2,8 -4,2 -11,2 -15,0 -15,-9 -30,-18 -46,-27 -15,-9 -30,-18 -46,-27 -9,1 -19,2 -29,3 17,8 33,17 49,26 16,8 31,17 47,25 4,2 4,6 -1,8 -5,3 -13,3 -17,0 -18,-9 -35,-18 -53,-28 -18,-9 -36,-19 -54,-29 -10,1 -21,2 -31,3 19,9 38,18 56,28 18,9 37,18 55,27 4,2 4,6 -1,8 -6,3 -14,3 -19,1 -20,-10 -40,-20 -61,-30 -21,-11 -42,-21 -63,-31 -11,1 -23,2 -34,3 22,10 44,20 65,29 22,10 43,19 63,29 5,2 5,6 -1,9 -5,3 -14,3 -19,1 -24,-11 -47,-21 -71,-32 -25,-11 -49,-22 -74,-33 -12,1 -25,2 -37,3 26,11 51,21 76,32 24,10 49,20 73,30 5,2 5,6 -1,9 -6,3 -16,4 -22,2 -26,-11 -54,-23 -82,-34 -28,-11 -57,-23 -87,-35l-26 2 0 -48 15 -1c-5,-2 -10,-4 -15,-7l0 -20 7 3c17,7 34,15 51,23 15,-1 29,-1 43,-2 -15,-7 -31,-14 -46,-22 -16,-8 -32,-15 -48,-23 14,0 28,0 41,0 15,8 31,15 46,22 15,8 30,15 45,22 13,0 26,-1 39,-1 -13,-7 -27,-14 -40,-21 -14,-7 -28,-15 -42,-22 12,0 24,0 36,0 13,7 27,14 40,21 13,7 26,14 39,21 12,-1 24,-1 36,-1 -12,-7 -24,-14 -36,-20 -11,-7 -23,-14 -35,-21 10,0 21,0 31,0 12,7 23,13 35,20 11,7 22,13 34,20 11,-1 22,-1 32,-1 -10,-7 -20,-13 -30,-19 -10,-7 -21,-13 -31,-20 9,0 18,0 27,0 10,6 20,13 30,19 11,6 20,13 30,19 10,0 21,-1 30,-1 -8,-6 -17,-12 -26,-18 -9,-7 -18,-13 -27,-19 8,0 16,0 24,0 9,6 18,12 26,18 9,6 18,12 27,18 9,0 18,0 27,0 -7,-6 -15,-12 -23,-18 -8,-6 -15,-12 -23,-18 7,0 15,0 22,0 7,6 15,12 22,17 8,6 16,12 23,18 9,0 17,-1 26,-1 -7,-6 -14,-11 -20,-17 -7,-6 -14,-11 -20,-17 6,0 13,0 19,0 7,6 13,11 20,17 6,5 13,11 19,16l0 23zm-480 48c25,9 50,19 75,28 28,11 56,21 84,32 6,2 6,7 -1,10 -7,3 -17,4 -24,2 -30,-12 -62,-24 -95,-36 -13,-5 -26,-9 -39,-14l0 -22zm0 40c32,11 63,21 94,32 7,2 7,7 -1,11 -7,3 -18,4 -25,2 -23,-8 -45,-15 -68,-23l0 -22zm480 -134c-3,-4 -7,-7 -10,-10l10 0 0 10zm-480 172c8,3 15,5 23,7 7,3 7,8 -1,12 -6,3 -15,4 -22,4l0 -23z"/>
  <g>
   <polygon class="fil4" points="480,221 0,221 0,210 480,210 "/>
   <g id="_226115216">
    <path class="fil5" d="M480 242c-160,0 -320,0 -480,0 0,-4 0,-7 0,-11 160,0 320,0 480,0 0,4 0,7 0,11z"/>
    <path class="fil6" d="M480 263c-160,0 -320,0 -480,0 0,-4 0,-7 0,-11 160,0 320,0 480,0 0,4 0,7 0,11z"/>
    <path class="fil7" d="M480 284c-160,0 -320,0 -480,0 0,-4 0,-7 0,-11 160,0 320,0 480,0 0,4 0,7 0,11z"/>
    <path class="fil8" d="M480 305c-160,0 -320,0 -480,0 0,-4 0,-7 0,-11 160,0 320,0 480,0 0,4 0,7 0,11z"/>
    <path class="fil9" d="M480 326c-160,0 -320,0 -480,0 0,-4 0,-7 0,-11 160,0 320,0 480,0 0,4 0,7 0,11z"/>
    <path class="fil10" d="M480 347c-160,0 -320,0 -480,0 0,-4 0,-7 0,-11 160,0 320,0 480,0 0,4 0,7 0,11z"/>
    <path class="fil11" d="M480 368c-160,0 -320,0 -480,0 0,-4 0,-7 0,-11 160,0 320,0 480,0 0,4 0,7 0,11z"/>
    <path class="fil12" d="M480 389c-160,0 -320,0 -480,0 0,-4 0,-7 0,-11 160,0 320,0 480,0 0,4 0,7 0,11z"/>
   </g>
   <polygon class="fil13" points="480,410 0,410 0,399 480,399 "/>
  </g>
 </g>
</svg>
