<?xml version="1.0" encoding="UTF-8"?>
<!DOCTYPE svg PUBLIC "-//W3C//DTD SVG 1.1//EN" "http://www.w3.org/Graphics/SVG/1.1/DTD/svg11.dtd">
<!-- Creator: CorelDRAW X7 -->
<svg xmlns="http://www.w3.org/2000/svg" xml:space="preserve" width="480px" height="420px" version="1.1" style="shape-rendering:geometricPrecision; text-rendering:geometricPrecision; image-rendering:optimizeQuality; fill-rule:evenodd; clip-rule:evenodd"
viewBox="0 0 480 420"
 xmlns:xlink="http://www.w3.org/1999/xlink">
 <defs>
  <style type="text/css">
   <![CDATA[
    .fil0 {fill:#DCBE78}
    .fil1 {fill:url(#id0)}
   ]]>
  </style>
  <radialGradient id="id0" gradientUnits="userSpaceOnUse" gradientTransform="matrix(1 -0 -0 0.999999 0 0)" cx="239.637" cy="241.039" r="203.125" fx="239.637" fy="241.039">
   <stop offset="0" style="stop-opacity:0.4; stop-color:#DCBE78"/>
   <stop offset="0.4" style="stop-opacity:0.4; stop-color:#DCBE78"/>
   <stop offset="1" style="stop-opacity:0; stop-color:#DCBE78"/>
  </radialGradient>
 </defs>
 <g id="Ebene_x0020_1">
  <metadata id="CorelCorpID_0Corel-Layer"/>
  <path class="fil0" d="M96 253c246,28 432,-273 258,-198 233,-111 -10,261 -258,198z"/>
  <path class="fil0" d="M56 339c295,17 445,85 360,-11 32,52 -96,-3 -360,11z"/>
  <path class="fil0" d="M11 285c177,86 406,-57 405,-103 -27,42 -258,151 -405,103z"/>
  <circle class="fil0" cx="326" cy="288" r="6"/>
  <circle class="fil0" cx="378" cy="310" r="11"/>
  <circle class="fil0" cx="417" cy="265" r="15"/>
  <circle class="fil0" cx="436" cy="153" r="11"/>
  <circle class="fil0" cx="446" cy="294" r="7"/>
  <path class="fil0" d="M65 191c62,-17 79,-32 148,-17 -37,-34 -97,-21 -148,17z"/>
  <ellipse class="fil1" cx="240" cy="241" rx="236" ry="211"/>
 </g>
</svg>
