<?xml version="1.0" encoding="UTF-8"?>
<!DOCTYPE svg PUBLIC "-//W3C//DTD SVG 1.1//EN" "http://www.w3.org/Graphics/SVG/1.1/DTD/svg11.dtd">

<svg xmlns="http://www.w3.org/2000/svg" xml:space="preserve" width="480px" height="420px" version="1.1" style="shape-rendering:geometricPrecision; text-rendering:geometricPrecision; image-rendering:optimizeQuality; fill-rule:evenodd; clip-rule:evenodd"
viewBox="0 0 480 420"
 xmlns:xlink="http://www.w3.org/1999/xlink">
 <defs>
  <style type="text/css">
   <![CDATA[
    .str4 {stroke:#062845;stroke-width:11.811}
    .str0 {stroke:#52B1FF;stroke-width:8.85827;stroke-linecap:round;stroke-linejoin:round}
    .str1 {stroke:gray;stroke-width:5.90551;stroke-linecap:round;stroke-linejoin:round}
    .str2 {stroke:#CCCCCC;stroke-width:2.95276;stroke-linecap:round;stroke-linejoin:round}
    .str3 {stroke:white;stroke-width:2.95276;stroke-linecap:round;stroke-linejoin:round}
    .fil0 {fill:none}
    .fil1 {fill:#023557}
    .fil3 {fill:#B3B3B3}
    .fil2 {fill:#FFF2C9}
    .fil4 {fill:white;fill-rule:nonzero}
   ]]>
  </style>
 </defs>
 <g id="Layer_x0020_1">
  <metadata id="CorelCorpID_0Corel-Layer"/>
  <g id="_233638376">
   <path class="fil0 str0" d="M416 59l-7 23m15 -8l-23 -6"/>
   <path class="fil0 str1" d="M90 105l-12 45m29 -16l-45 -12"/>
   <path class="fil0 str2" d="M282 13l-12 45m28 -16l-45 -12"/>
   <path class="fil0 str0" d="M59 58l-6 23m14 -9l-23 -6"/>
   <path class="fil0 str3" d="M419 135l-12 45m29 -16l-45 -12"/>
  </g>
  <g id="_233651696">
   <path class="fil1 str4" d="M382 210c0,-79 -63,-142 -142,-142 -79,0 -142,63 -142,142 0,79 63,142 142,142 79,0 142,-63 142,-142z"/>
   <path class="fil2 str4" d="M254 69c-4,0 -9,0 -14,0 -78,0 -141,63 -141,141 0,78 63,141 141,141 5,0 9,0 13,0 18,-3 14,-21 8,-25 -29,-22 -49,-66 -49,-116 0,-51 20,-94 49,-117 7,-2 9,-21 -7,-24z"/>
  </g>
  <g id="_233622344">
   <g>
    <path class="fil3" d="M251 289c2,-7 3,-15 3,-22 0,-5 -1,-10 -2,-15l-1 37zm138 -23c2,-5 2,-11 2,-17 0,-4 0,-7 -1,-11l-1 28zm-136 -15c0,0 0,1 -1,1 -7,-45 -45,-79 -91,-79 -52,0 -94,42 -94,94 0,7 1,15 3,22 -2,0 -5,-1 -8,-1 -20,0 -36,16 -36,36 0,20 16,36 36,36l99 0 119 0c26,0 49,-18 56,-42l75 0c23,0 42,-19 42,-43 0,-23 -19,-42 -42,-42 -8,0 -15,2 -21,5 -5,-33 -33,-58 -68,-58 -38,0 -69,31 -69,69 0,1 0,2 0,2z"/>
   </g>
   <path class="fil4" d="M445 241c9,9 14,21 14,34 0,14 -5,26 -14,35 -9,9 -21,14 -34,14l-71 0c-3,9 -8,17 -15,23 -11,11 -27,19 -45,19l-119 0 -99 0c-12,0 -22,-5 -30,-13 -7,-7 -12,-17 -12,-29 0,-11 5,-22 12,-29 8,-8 18,-12 30,-12 0,0 0,0 1,0 0,-2 -1,-3 -1,-4 0,-4 -1,-8 -1,-12 0,-28 12,-53 29,-70 18,-18 43,-29 71,-29 24,0 46,8 64,23 11,10 20,22 26,35 4,-11 10,-21 18,-30 14,-13 33,-22 53,-22 19,0 36,7 49,18 11,10 20,23 24,38 1,-1 2,-1 4,-1 4,-1 8,-2 12,-2 13,0 25,5 34,14 0,0 0,0 0,0zm-113 61c0,-14 -6,-27 -15,-36 -10,-10 -23,-15 -37,-15 -4,0 -9,0 -13,1 -3,1 -5,2 -8,3 0,1 0,2 0,4 0,2 1,5 1,8 0,4 -1,8 -1,12 -1,4 -2,8 -3,12 0,3 -4,5 -7,4 -3,-1 -5,-4 -4,-7 1,-3 2,-7 2,-11 0,-3 1,-7 1,-10 0,-3 0,-5 -1,-7 0,-3 0,-5 0,-7l0 -1c-4,-20 -15,-39 -30,-52 -15,-13 -35,-21 -56,-21 -25,0 -46,10 -62,26 -16,16 -26,37 -26,62 0,3 1,7 1,10 0,4 1,8 2,11 1,3 -1,6 -4,7 -1,0 -2,0 -3,0 -1,0 -2,0 -4,0 -1,-1 -2,-1 -3,-1 -8,0 -16,4 -21,9 -6,5 -9,13 -9,21 0,8 3,16 9,21 5,5 13,9 21,9l99 0 119 0c14,0 27,-6 37,-15 9,-10 15,-23 15,-37zm-7 -45c12,12 19,28 19,45 0,4 -1,7 -1,10l68 0c10,0 19,-4 26,-11 6,-6 11,-15 11,-26 0,-10 -5,-19 -11,-25 0,-1 0,-1 0,-1 -7,-6 -16,-10 -26,-10 -3,0 -6,0 -9,1 -2,0 -4,1 -5,2 0,0 0,1 0,1 0,2 0,4 0,6 0,3 0,6 0,9 -1,3 -1,7 -2,10 -1,3 -4,5 -7,4 -4,-1 -5,-4 -5,-7 1,-3 1,-5 2,-8 0,-3 0,-5 0,-8 0,-2 0,-3 0,-5 0,-2 0,-3 0,-5 0,0 0,0 -1,0 -2,-15 -10,-28 -21,-38 -11,-9 -25,-15 -41,-15 -17,0 -33,7 -44,19 -10,9 -17,23 -18,37 1,0 3,-1 4,-1 6,-2 11,-2 16,-2 18,0 34,7 45,18z"/>
  </g>
 </g>
</svg>
