<?xml version="1.0" encoding="UTF-8"?>
<!DOCTYPE svg PUBLIC "-//W3C//DTD SVG 1.1//EN" "http://www.w3.org/Graphics/SVG/1.1/DTD/svg11.dtd">

<svg xmlns="http://www.w3.org/2000/svg" xml:space="preserve" width="480px" height="420px" version="1.1" style="shape-rendering:geometricPrecision; text-rendering:geometricPrecision; image-rendering:optimizeQuality; fill-rule:evenodd; clip-rule:evenodd"
viewBox="0 0 480 420"
 xmlns:xlink="http://www.w3.org/1999/xlink">
 <defs>
  <style type="text/css">
   <![CDATA[
    .str4 {stroke:white;stroke-width:11.811;stroke-linecap:round;stroke-linejoin:round}
    .str0 {stroke:#52B1FF;stroke-width:8.85827;stroke-linecap:round;stroke-linejoin:round}
    .str1 {stroke:gray;stroke-width:5.90551;stroke-linecap:round;stroke-linejoin:round}
    .str2 {stroke:#CCCCCC;stroke-width:2.95276;stroke-linecap:round;stroke-linejoin:round}
    .str3 {stroke:white;stroke-width:2.95276;stroke-linecap:round;stroke-linejoin:round}
    .fil0 {fill:none}
    .fil1 {fill:#52B1FF}
    .fil2 {fill:#B3B3B3}
    .fil4 {fill:#B3B3B3;fill-rule:nonzero}
    .fil3 {fill:white;fill-rule:nonzero}
   ]]>
  </style>
 </defs>
 <g id="Layer_x0020_1">
  <metadata id="CorelCorpID_0Corel-Layer"/>
  <g id="_233646488">
   <path class="fil0 str0" d="M416 59l-7 23m15 -8l-23 -6"/>
   <path class="fil0 str1" d="M90 105l-12 45m29 -16l-45 -12"/>
   <path class="fil0 str2" d="M282 13l-12 45m28 -16l-45 -12"/>
   <path class="fil0 str0" d="M59 58l-6 23m14 -9l-23 -6"/>
   <path class="fil0 str3" d="M419 135l-12 45m29 -16l-45 -12"/>
  </g>
  <path class="fil1" d="M81 342l16 -15c3,3 12,11 16,15 8,8 8,21 0,29 -9,8 -23,8 -32,0 -9,-8 -9,-21 0,-29zm60 0l16 -15c4,3 12,11 16,15 9,8 9,21 0,29 -9,8 -23,8 -32,0 -9,-8 -9,-21 0,-29zm-31 38l16 -15c4,3 12,11 16,15 9,8 9,21 0,29 -9,8 -23,8 -32,0 -9,-8 -9,-21 0,-29zm61 0l16 -15c4,3 12,11 16,15 9,8 9,21 0,29 -9,8 -23,8 -32,0 -8,-8 -8,-21 0,-29zm31 -38l16 -15c3,3 12,11 15,15 9,8 9,21 0,29 -8,8 -23,8 -31,0 -9,-8 -9,-21 0,-29z"/>
  <path class="fil1" d="M231 380l16 -14c4,3 12,11 16,14 9,8 9,22 0,30 -9,8 -23,8 -32,0 -8,-8 -8,-22 0,-30zm61 0l16 -14c3,3 12,11 16,14 8,8 8,22 0,30 -9,8 -23,8 -32,0 -9,-8 -9,-22 0,-30zm60 0l16 -14c4,3 12,11 16,14 9,8 9,22 0,30 -9,8 -23,8 -32,0 -8,-8 -8,-22 0,-30z"/>
  <g>
   <path class="fil2" d="M338 263c0,-31 -26,-57 -58,-57 -10,0 -19,2 -28,7 -7,-44 -45,-78 -91,-78 -52,0 -94,41 -94,93 0,8 1,15 3,23 -2,-1 -5,-1 -8,-1 -20,0 -36,16 -36,35 0,20 16,36 36,36l99 0 119 0c32,0 58,-26 58,-58zm-87 -12c2,-8 3,-15 3,-23 0,-5 -1,-10 -2,-15l-1 38z"/>
   <path id="1" class="fil0 str4" d="M338 263c0,-31 -26,-57 -58,-57 -10,0 -19,2 -28,7 -7,-44 -45,-78 -91,-78 -52,0 -94,41 -94,93 0,8 1,15 3,23 -2,-1 -5,-1 -8,-1 -20,0 -36,16 -36,35 0,20 16,36 36,36l99 0 119 0c32,0 58,-26 58,-58zm-87 -12c2,-8 3,-15 3,-23 0,-5 -1,-10 -2,-15"/>
  </g>
  <g>
   <path class="fil3" d="M447 273c8,8 13,19 13,31 0,12 -5,24 -13,32 -8,8 -19,13 -32,13l-80 0 -66 0c-9,0 -16,-4 -21,-9l0 0c-6,-5 -9,-13 -9,-21 0,-8 3,-16 9,-21 5,-5 11,-8 19,-9l0 0c0,-3 0,-6 0,-9 0,-19 7,-36 20,-48 12,-13 29,-20 48,-20 17,0 32,6 44,16 11,9 18,21 22,34 1,0 2,-1 3,-1 4,-1 8,-1 11,-1 13,0 24,5 32,13z"/>
   <path class="fil4" d="M448 304c0,-9 -4,-17 -10,-23 -5,-6 -14,-10 -23,-10 -3,0 -5,1 -8,1 -1,1 -3,1 -4,2 0,0 0,0 0,1 0,2 0,3 0,5 0,3 0,6 0,9 -1,3 -1,5 -2,8 -1,3 -4,5 -7,4 -3,0 -5,-4 -4,-7 0,-2 1,-4 1,-7 0,-2 1,-4 1,-7 0,-1 0,-3 -1,-4 0,-2 0,-3 0,-5 0,0 0,0 0,0 -2,-14 -9,-25 -19,-34 -10,-8 -23,-13 -37,-13 -16,0 -30,6 -40,16 -10,10 -17,25 -17,40 0,3 0,5 1,7 0,3 0,5 1,7 1,3 -1,7 -4,7 -1,1 -2,1 -3,0 -1,0 -2,0 -2,0 -1,0 -2,0 -2,0 -5,0 -10,2 -13,5 -3,3 -5,8 -5,13 0,5 2,9 5,13l0 0 0 0c3,3 8,5 13,5l66 0 80 0c9,0 18,-4 23,-10 6,-6 10,-14 10,-23z"/>
  </g>
 </g>
</svg>
