<?xml version="1.0" encoding="UTF-8"?>
<!DOCTYPE svg PUBLIC "-//W3C//DTD SVG 1.1//EN" "http://www.w3.org/Graphics/SVG/1.1/DTD/svg11.dtd">

<svg xmlns="http://www.w3.org/2000/svg" xml:space="preserve" width="480px" height="420px" version="1.1" style="shape-rendering:geometricPrecision; text-rendering:geometricPrecision; image-rendering:optimizeQuality; fill-rule:evenodd; clip-rule:evenodd"
viewBox="0 0 480 420"
 xmlns:xlink="http://www.w3.org/1999/xlink">
 <defs>
  <style type="text/css">
   <![CDATA[
    .str0 {stroke:white;stroke-width:11.811;stroke-linecap:round;stroke-linejoin:round}
    .fil1 {fill:none}
    .fil0 {fill:#B3B3B3}
    .fil4 {fill:white}
    .fil3 {fill:#B3B3B3;fill-rule:nonzero}
    .fil2 {fill:white;fill-rule:nonzero}
   ]]>
  </style>
 </defs>
 <g id="Layer_x0020_1">
  <metadata id="CorelCorpID_0Corel-Layer"/>
  <g>
   <path class="fil0" d="M338 263c0,-31 -26,-57 -58,-57 -10,0 -19,2 -28,7 -7,-44 -45,-78 -91,-78 -52,0 -94,41 -94,93 0,8 1,15 3,23 -2,-1 -5,-1 -8,-1 -20,0 -36,16 -36,35 0,20 16,36 36,36l99 0 119 0c32,0 58,-26 58,-58zm-87 -12c2,-8 3,-15 3,-23 0,-5 -1,-10 -2,-15l-1 38z"/>
   <path id="1" class="fil1 str0" d="M338 263c0,-31 -26,-57 -58,-57 -10,0 -19,2 -28,7 -7,-44 -45,-78 -91,-78 -52,0 -94,41 -94,93 0,8 1,15 3,23 -2,-1 -5,-1 -8,-1 -20,0 -36,16 -36,35 0,20 16,36 36,36l99 0 119 0c32,0 58,-26 58,-58zm-87 -12c2,-8 3,-15 3,-23 0,-5 -1,-10 -2,-15"/>
  </g>
  <g>
   <path class="fil0" d="M454 201c0,-29 -23,-53 -52,-53 -9,0 -18,3 -25,7 -6,-40 -41,-71 -83,-71 -47,0 -85,38 -85,84 0,8 1,15 3,21 -3,0 -5,-1 -8,-1 -18,0 -32,15 -32,33 0,17 14,32 32,32l90 0 108 0c29,0 52,-24 52,-52zm-79 -12c2,-7 3,-14 3,-21 0,-4 0,-9 -1,-13l-2 34z"/>
   <path id="1" class="fil1 str0" d="M454 201c0,-29 -23,-53 -52,-53 -9,0 -18,3 -25,7 -6,-40 -41,-71 -83,-71 -47,0 -85,38 -85,84 0,8 1,15 3,21 -3,0 -5,-1 -8,-1 -18,0 -32,15 -32,33 0,17 14,32 32,32l90 0 108 0c29,0 52,-24 52,-52zm-79 -12c2,-7 3,-14 3,-21 0,-4 0,-9 -1,-13"/>
  </g>
  <g>
   <path class="fil2" d="M447 273c8,8 13,19 13,31 0,12 -5,24 -13,32 -8,8 -19,13 -32,13l-80 0 -66 0c-9,0 -16,-4 -21,-9l0 0c-6,-5 -9,-13 -9,-21 0,-8 3,-16 9,-21 5,-5 11,-8 19,-9l0 0c0,-3 0,-6 0,-9 0,-19 7,-36 20,-48 12,-13 29,-20 48,-20 17,0 32,6 44,16 11,9 18,21 22,34 1,0 2,-1 3,-1 4,-1 8,-1 11,-1 13,0 24,5 32,13z"/>
   <path class="fil3" d="M448 304c0,-9 -4,-17 -10,-23 -5,-6 -14,-10 -23,-10 -3,0 -5,1 -8,1 -1,1 -3,1 -4,2 0,0 0,0 0,1 0,2 0,3 0,5 0,3 0,6 0,9 -1,3 -1,5 -2,8 -1,3 -4,5 -7,4 -3,0 -5,-4 -4,-7 0,-2 1,-4 1,-7 0,-2 1,-4 1,-7 0,-1 0,-3 -1,-4 0,-2 0,-3 0,-5 0,0 0,0 0,0 -2,-14 -9,-25 -19,-34 -10,-8 -23,-13 -37,-13 -16,0 -30,6 -40,16 -10,10 -17,25 -17,40 0,3 0,5 1,7 0,3 0,5 1,7 1,3 -1,7 -4,7 -1,1 -2,1 -3,0 -1,0 -2,0 -2,0 -1,0 -2,0 -2,0 -5,0 -10,2 -13,5 -3,3 -5,8 -5,13 0,5 2,9 5,13l0 0 0 0c3,3 8,5 13,5l66 0 80 0c9,0 18,-4 23,-10 6,-6 10,-14 10,-23z"/>
  </g>
  <g id="snowflakes">
   <polygon id="rect3428" class="fil4" points="279,352 279,360 272,353 269,356 279,367 279,378 269,372 266,358 261,360 264,369 257,365 255,369 261,373 252,375 253,380 267,376 277,382 267,387 253,384 252,388 261,391 255,394 257,398 264,395 261,404 266,405 269,391 279,386 279,397 269,407 272,410 279,404 279,411 284,411 284,404 290,410 294,407 284,397 284,386 293,391 297,405 301,404 299,395 305,398 308,394 301,391 311,388 309,384 296,387 286,382 296,376 309,380 311,375 301,373 308,369 305,365 299,369 301,360 297,358 293,372 284,378 284,367 294,356 290,353 284,360 284,352 "/>
   <polygon id="rect3428_0" class="fil4" points="342,353 342,360 335,353 332,357 342,367 342,378 332,372 329,359 324,360 327,369 320,365 318,369 324,373 315,376 316,380 330,376 340,382 330,387 316,384 315,388 324,391 318,395 320,399 327,395 324,404 329,405 332,392 342,386 342,397 332,407 335,411 342,404 342,411 347,411 347,404 354,411 357,407 347,397 347,386 356,392 360,405 365,404 362,395 369,399 371,395 365,391 374,388 373,384 359,387 349,382 359,376 373,380 374,376 365,373 371,369 369,365 362,369 365,360 360,359 356,372 347,378 347,367 357,357 354,353 347,360 347,353 "/>
   <polygon id="rect3428_1" class="fil4" points="405,352 405,360 398,353 395,356 405,367 405,378 396,372 392,358 387,360 390,369 383,365 381,369 388,373 378,375 379,380 393,376 403,382 393,387 379,384 378,388 388,391 381,394 383,398 390,395 387,404 392,405 396,391 405,386 405,397 395,407 398,410 405,404 405,411 410,411 410,404 417,410 420,407 410,397 410,386 420,391 423,405 428,404 425,395 432,398 434,394 428,391 437,388 436,384 422,387 412,382 422,376 436,380 437,375 428,373 434,369 432,365 425,369 428,360 423,358 420,372 410,378 410,367 420,356 417,353 410,360 410,352 "/>
  </g>
  <g id="snowflakes_2">
   <polygon id="rect3428_3" class="fil4" points="89,334 89,341 82,334 79,338 89,348 89,359 79,353 75,340 71,341 73,350 67,346 64,350 71,354 62,357 63,361 77,357 86,363 77,369 63,365 62,369 71,372 64,376 67,380 73,376 71,385 75,386 79,373 89,367 89,378 79,388 82,392 89,385 89,392 93,392 93,385 100,392 103,388 93,378 93,367 103,373 107,386 111,385 109,376 115,380 118,376 111,372 120,369 119,365 105,369 96,363 105,357 119,361 120,357 111,354 118,350 115,346 109,350 111,341 107,340 103,353 93,359 93,348 103,338 100,334 93,341 93,334 "/>
   <polygon id="rect3428_4" class="fil4" points="152,334 152,341 145,335 142,338 152,348 152,359 142,354 139,340 134,341 136,350 130,347 128,351 134,354 125,357 126,361 140,358 150,363 140,369 126,365 125,370 134,372 128,376 130,380 136,376 134,385 139,387 142,373 152,367 152,378 142,389 145,392 152,385 152,393 157,393 157,385 163,392 167,389 157,378 157,367 166,373 170,387 174,385 172,376 178,380 181,376 174,372 184,370 182,365 169,369 159,363 169,358 182,361 184,357 174,354 181,351 178,347 172,350 174,341 170,340 166,354 157,359 157,348 167,338 163,335 157,341 157,334 "/>
   <polygon id="rect3428_5" class="fil4" points="215,334 215,341 208,334 205,338 215,348 215,359 205,353 202,340 197,341 200,350 193,346 191,350 197,354 188,357 189,361 203,357 213,363 203,369 189,365 188,369 197,372 191,376 193,380 200,376 197,385 202,386 205,373 215,367 215,378 205,388 208,392 215,385 215,392 220,392 220,385 226,392 230,388 220,378 220,367 229,373 233,386 238,385 235,376 242,380 244,376 237,372 247,369 245,365 232,369 222,363 232,357 245,361 247,357 237,354 244,350 242,346 235,350 238,341 233,340 229,353 220,359 220,348 230,338 226,334 220,341 220,334 "/>
  </g>
 </g>
</svg>
