<?xml version="1.0" encoding="UTF-8"?>
<!DOCTYPE svg PUBLIC "-//W3C//DTD SVG 1.1//EN" "http://www.w3.org/Graphics/SVG/1.1/DTD/svg11.dtd">

<svg xmlns="http://www.w3.org/2000/svg" xml:space="preserve" width="480px" height="420px" version="1.1" style="shape-rendering:geometricPrecision; text-rendering:geometricPrecision; image-rendering:optimizeQuality; fill-rule:evenodd; clip-rule:evenodd"
viewBox="0 0 480 420"
 xmlns:xlink="http://www.w3.org/1999/xlink">
 <defs>
  <style type="text/css">
   <![CDATA[
    .str0 {stroke:#062845;stroke-width:11.811}
    .str1 {stroke:#52B1FF;stroke-width:8.85827;stroke-linecap:round;stroke-linejoin:round}
    .str2 {stroke:gray;stroke-width:5.90551;stroke-linecap:round;stroke-linejoin:round}
    .str3 {stroke:#CCCCCC;stroke-width:2.95276;stroke-linecap:round;stroke-linejoin:round}
    .str4 {stroke:white;stroke-width:2.95276;stroke-linecap:round;stroke-linejoin:round}
    .fil2 {fill:none}
    .fil0 {fill:#023557}
    .fil5 {fill:#52B1FF}
    .fil1 {fill:#FFF2C9}
    .fil4 {fill:#999999;fill-rule:nonzero}
    .fil3 {fill:white;fill-rule:nonzero}
   ]]>
  </style>
 </defs>
 <g id="Layer_x0020_1">
  <metadata id="CorelCorpID_0Corel-Layer"/>
  <g id="_233643032">
   <path class="fil0 str0" d="M382 210c0,-79 -63,-142 -142,-142 -79,0 -142,63 -142,142 0,79 63,142 142,142 79,0 142,-63 142,-142z"/>
   <path class="fil1 str0" d="M254 69c-4,0 -9,0 -14,0 -78,0 -141,63 -141,141 0,78 63,141 141,141 5,0 9,0 13,0 18,-3 14,-21 8,-25 -29,-22 -49,-66 -49,-116 0,-51 20,-94 49,-117 7,-2 9,-21 -7,-24z"/>
  </g>
  <g id="_233641496">
   <path class="fil2 str1" d="M416 59l-7 23m15 -8l-23 -6"/>
   <path class="fil2 str2" d="M90 105l-12 45m29 -16l-45 -12"/>
   <path class="fil2 str3" d="M282 13l-12 45m28 -16l-45 -12"/>
   <path class="fil2 str1" d="M59 58l-6 23m14 -9l-23 -6"/>
   <path class="fil2 str4" d="M419 135l-12 45m29 -16l-45 -12"/>
  </g>
  <g id="_233636120">
   <path class="fil3" d="M447 273c8,8 13,19 13,31 0,12 -5,24 -13,32 -8,8 -19,13 -32,13l-80 0 -66 0c-9,0 -16,-4 -21,-9l0 0c-6,-5 -9,-13 -9,-21 0,-8 3,-16 9,-21 5,-5 11,-8 19,-9l0 0c0,-3 0,-6 0,-9 0,-19 7,-36 20,-48 12,-13 29,-20 48,-20 17,0 32,6 44,16 11,9 18,21 22,34 1,0 2,-1 3,-1 4,-1 8,-1 11,-1 13,0 24,5 32,13z"/>
   <path class="fil4" d="M448 304c0,-9 -4,-17 -10,-23 -5,-6 -14,-10 -23,-10 -3,0 -5,1 -8,1 -1,1 -3,1 -4,2 0,0 0,0 0,1 0,2 0,3 0,5 0,3 0,6 0,9 -1,3 -1,5 -2,8 -1,3 -4,5 -7,4 -3,0 -5,-4 -4,-7 0,-2 1,-4 1,-7 0,-2 1,-4 1,-7 0,-1 0,-3 -1,-4 0,-2 0,-3 0,-5 0,0 0,0 0,0 -2,-14 -9,-25 -19,-34 -10,-8 -23,-13 -37,-13 -16,0 -30,6 -40,16 -10,10 -17,25 -17,40 0,3 0,5 1,7 0,3 0,5 1,7 1,3 -1,7 -4,7 -1,1 -2,1 -3,0 -1,0 -2,0 -2,0 -1,0 -2,0 -2,0 -5,0 -10,2 -13,5 -3,3 -5,8 -5,13 0,5 2,9 5,13l0 0 0 0c3,3 8,5 13,5l66 0 80 0c9,0 18,-4 23,-10 6,-6 10,-14 10,-23z"/>
  </g>
  <path class="fil5" d="M273 364l16 -15c3,3 12,11 16,15 8,8 8,21 0,29 -9,8 -23,8 -32,0 -9,-8 -9,-21 0,-29zm60 0l16 -15c4,3 12,11 16,15 9,8 9,21 0,29 -9,8 -23,8 -32,0 -9,-8 -9,-21 0,-29zm61 0l16 -15c3,3 12,11 15,15 9,8 9,21 0,29 -8,8 -22,8 -31,0 -9,-8 -9,-21 0,-29z"/>
 </g>
</svg>
