<?xml version="1.0" encoding="UTF-8"?>
<!DOCTYPE svg PUBLIC "-//W3C//DTD SVG 1.1//EN" "http://www.w3.org/Graphics/SVG/1.1/DTD/svg11.dtd">

<svg xmlns="http://www.w3.org/2000/svg" xml:space="preserve" width="480px" height="420px" version="1.1" style="shape-rendering:geometricPrecision; text-rendering:geometricPrecision; image-rendering:optimizeQuality; fill-rule:evenodd; clip-rule:evenodd"
viewBox="0 0 480 420"
 xmlns:xlink="http://www.w3.org/1999/xlink">
 <defs>
  <style type="text/css">
   <![CDATA[
    .str4 {stroke:white;stroke-width:11.811;stroke-linecap:round;stroke-linejoin:round}
    .str0 {stroke:#52B1FF;stroke-width:8.85827;stroke-linecap:round;stroke-linejoin:round}
    .str1 {stroke:gray;stroke-width:5.90551;stroke-linecap:round;stroke-linejoin:round}
    .str2 {stroke:#CCCCCC;stroke-width:2.95276;stroke-linecap:round;stroke-linejoin:round}
    .str3 {stroke:white;stroke-width:2.95276;stroke-linecap:round;stroke-linejoin:round}
    .fil0 {fill:none}
    .fil1 {fill:#B3B3B3}
    .fil4 {fill:white}
    .fil3 {fill:#CCCCCC;fill-rule:nonzero}
    .fil2 {fill:white;fill-rule:nonzero}
   ]]>
  </style>
 </defs>
 <g id="Layer_x0020_1">
  <metadata id="CorelCorpID_0Corel-Layer"/>
  <g id="_233629448">
   <path class="fil0 str0" d="M416 59l-7 23m15 -8l-23 -6"/>
   <path class="fil0 str1" d="M90 105l-12 45m29 -16l-45 -12"/>
   <path class="fil0 str2" d="M282 13l-12 45m28 -16l-45 -12"/>
   <path class="fil0 str0" d="M59 58l-6 23m14 -9l-23 -6"/>
   <path class="fil0 str3" d="M419 135l-12 45m29 -16l-45 -12"/>
  </g>
  <g>
   <path class="fil1" d="M338 263c0,-31 -26,-57 -58,-57 -10,0 -19,2 -28,7 -7,-44 -45,-78 -91,-78 -52,0 -94,41 -94,93 0,8 1,15 3,23 -2,-1 -5,-1 -8,-1 -20,0 -36,16 -36,35 0,20 16,36 36,36l99 0 119 0c32,0 58,-26 58,-58zm-87 -12c2,-8 3,-15 3,-23 0,-5 -1,-10 -2,-15l-1 38z"/>
   <path id="1" class="fil0 str4" d="M338 263c0,-31 -26,-57 -58,-57 -10,0 -19,2 -28,7 -7,-44 -45,-78 -91,-78 -52,0 -94,41 -94,93 0,8 1,15 3,23 -2,-1 -5,-1 -8,-1 -20,0 -36,16 -36,35 0,20 16,36 36,36l99 0 119 0c32,0 58,-26 58,-58zm-87 -12c2,-8 3,-15 3,-23 0,-5 -1,-10 -2,-15"/>
  </g>
  <g>
   <path class="fil2" d="M447 273c8,8 13,19 13,31 0,12 -5,24 -13,32 -8,8 -19,13 -32,13l-80 0 -66 0c-9,0 -16,-4 -21,-9l0 0c-6,-5 -9,-13 -9,-21 0,-8 3,-16 9,-21 5,-5 11,-8 19,-9l0 0c0,-3 0,-6 0,-9 0,-19 7,-36 20,-48 12,-13 29,-20 48,-20 17,0 32,6 44,16 11,9 18,21 22,34 1,0 2,-1 3,-1 4,-1 8,-1 11,-1 13,0 24,5 32,13z"/>
   <path class="fil3" d="M448 304c0,-9 -4,-17 -10,-23 -5,-6 -14,-10 -23,-10 -3,0 -5,1 -8,1 -1,1 -3,1 -4,2 0,0 0,0 0,1 0,2 0,3 0,5 0,3 0,6 0,9 -1,3 -1,5 -2,8 -1,3 -4,5 -7,4 -3,0 -5,-4 -4,-7 0,-2 1,-4 1,-7 0,-2 1,-4 1,-7 0,-1 0,-3 -1,-4 0,-2 0,-3 0,-5 0,0 0,0 0,0 -2,-14 -9,-25 -19,-34 -10,-8 -23,-13 -37,-13 -16,0 -30,6 -40,16 -10,10 -17,25 -17,40 0,3 0,5 1,7 0,3 0,5 1,7 1,3 -1,7 -4,7 -1,1 -2,1 -3,0 -1,0 -2,0 -2,0 -1,0 -2,0 -2,0 -5,0 -10,2 -13,5 -3,3 -5,8 -5,13 0,5 2,9 5,13l0 0 0 0c3,3 8,5 13,5l66 0 80 0c9,0 18,-4 23,-10 6,-6 10,-14 10,-23z"/>
  </g>
  <g>
   <polygon id="rect3428" class="fil4" points="105,334 105,341 98,335 95,338 105,348 105,359 95,354 91,340 87,341 89,350 83,347 80,351 87,354 78,357 79,361 93,358 102,363 93,369 79,365 78,370 87,372 80,376 83,380 89,376 87,385 91,387 95,373 105,367 105,378 95,389 98,392 105,385 105,393 109,393 109,385 116,392 119,389 109,378 109,367 119,373 123,387 127,385 125,376 131,380 134,376 127,372 136,370 135,365 121,369 112,363 121,358 135,361 136,357 127,354 134,351 131,347 125,350 127,341 123,340 119,354 109,359 109,348 119,338 116,335 109,341 109,334 "/>
   <polygon id="rect3428_0" class="fil4" points="189,334 189,341 182,334 179,338 189,348 189,359 179,353 175,340 171,341 173,350 167,346 164,350 171,354 162,357 163,361 177,357 186,363 177,369 163,365 162,369 171,372 164,376 167,380 173,376 171,385 175,386 179,373 189,367 189,378 179,388 182,392 189,385 189,392 193,392 193,385 200,392 203,388 193,378 193,367 203,373 207,386 211,385 209,376 215,380 218,376 211,372 220,369 219,365 205,369 196,363 205,357 219,361 220,357 211,354 218,350 215,346 209,350 211,341 207,340 203,353 193,359 193,348 203,338 200,334 193,341 193,334 "/>
  </g>
 </g>
</svg>
