<?xml version="1.0" encoding="UTF-8"?>
<!DOCTYPE svg PUBLIC "-//W3C//DTD SVG 1.1//EN" "http://www.w3.org/Graphics/SVG/1.1/DTD/svg11.dtd">

<svg xmlns="http://www.w3.org/2000/svg" xml:space="preserve" width="480px" height="420px" version="1.1" style="shape-rendering:geometricPrecision; text-rendering:geometricPrecision; image-rendering:optimizeQuality; fill-rule:evenodd; clip-rule:evenodd"
viewBox="0 0 480 420"
 xmlns:xlink="http://www.w3.org/1999/xlink">
 <defs>
  <style type="text/css">
   <![CDATA[
    .str4 {stroke:white;stroke-width:11.811;stroke-linecap:round;stroke-linejoin:round}
    .str0 {stroke:#52B1FF;stroke-width:8.85827;stroke-linecap:round;stroke-linejoin:round}
    .str1 {stroke:gray;stroke-width:5.90551;stroke-linecap:round;stroke-linejoin:round}
    .str2 {stroke:#CCCCCC;stroke-width:2.95276;stroke-linecap:round;stroke-linejoin:round}
    .str3 {stroke:white;stroke-width:2.95276;stroke-linecap:round;stroke-linejoin:round}
    .fil0 {fill:none}
    .fil1 {fill:#52B1FF}
    .fil2 {fill:#B3B3B3}
    .fil5 {fill:white}
    .fil4 {fill:#CCCCCC;fill-rule:nonzero}
    .fil3 {fill:white;fill-rule:nonzero}
   ]]>
  </style>
 </defs>
 <g id="Layer_x0020_1">
  <metadata id="CorelCorpID_0Corel-Layer"/>
  <g id="_226092632">
   <path class="fil0 str0" d="M416 59l-7 23m15 -8l-23 -6"/>
   <path class="fil0 str1" d="M90 105l-12 45m29 -16l-45 -12"/>
   <path class="fil0 str2" d="M282 13l-12 45m28 -16l-45 -12"/>
   <path class="fil0 str0" d="M59 58l-6 23m14 -9l-23 -6"/>
   <path class="fil0 str3" d="M419 135l-12 45m29 -16l-45 -12"/>
  </g>
  <path class="fil1" d="M148 343l15 -15c4,3 13,11 16,15 9,8 9,21 0,29 -8,8 -23,8 -31,0 -9,-8 -9,-21 0,-29zm-31 38l15 -15c4,3 13,11 16,15 9,8 9,21 0,29 -8,8 -23,8 -31,0 -9,-8 -9,-21 0,-29z"/>
  <g>
   <path class="fil2" d="M338 263c0,-31 -26,-57 -58,-57 -10,0 -19,2 -28,7 -7,-44 -45,-78 -91,-78 -52,0 -94,41 -94,93 0,8 1,15 3,23 -2,-1 -5,-1 -8,-1 -20,0 -36,16 -36,35 0,20 16,36 36,36l99 0 119 0c32,0 58,-26 58,-58zm-87 -12c2,-8 3,-15 3,-23 0,-5 -1,-10 -2,-15l-1 38z"/>
   <path id="1" class="fil0 str4" d="M338 263c0,-31 -26,-57 -58,-57 -10,0 -19,2 -28,7 -7,-44 -45,-78 -91,-78 -52,0 -94,41 -94,93 0,8 1,15 3,23 -2,-1 -5,-1 -8,-1 -20,0 -36,16 -36,35 0,20 16,36 36,36l99 0 119 0c32,0 58,-26 58,-58zm-87 -12c2,-8 3,-15 3,-23 0,-5 -1,-10 -2,-15"/>
  </g>
  <g>
   <path class="fil3" d="M447 273c8,8 13,19 13,31 0,12 -5,24 -13,32 -8,8 -19,13 -32,13l-80 0 -66 0c-9,0 -16,-4 -21,-9l0 0c-6,-5 -9,-13 -9,-21 0,-8 3,-16 9,-21 5,-5 11,-8 19,-9l0 0c0,-3 0,-6 0,-9 0,-19 7,-36 20,-48 12,-13 29,-20 48,-20 17,0 32,6 44,16 11,9 18,21 22,34 1,0 2,-1 3,-1 4,-1 8,-1 11,-1 13,0 24,5 32,13z"/>
   <path class="fil4" d="M448 304c0,-9 -4,-17 -10,-23 -5,-6 -14,-10 -23,-10 -3,0 -5,1 -8,1 -1,1 -3,1 -4,2 0,0 0,0 0,1 0,2 0,3 0,5 0,3 0,6 0,9 -1,3 -1,5 -2,8 -1,3 -4,5 -7,4 -3,0 -5,-4 -4,-7 0,-2 1,-4 1,-7 0,-2 1,-4 1,-7 0,-1 0,-3 -1,-4 0,-2 0,-3 0,-5 0,0 0,0 0,0 -2,-14 -9,-25 -19,-34 -10,-8 -23,-13 -37,-13 -16,0 -30,6 -40,16 -10,10 -17,25 -17,40 0,3 0,5 1,7 0,3 0,5 1,7 1,3 -1,7 -4,7 -1,1 -2,1 -3,0 -1,0 -2,0 -2,0 -1,0 -2,0 -2,0 -5,0 -10,2 -13,5 -3,3 -5,8 -5,13 0,5 2,9 5,13l0 0 0 0c3,3 8,5 13,5l66 0 80 0c9,0 18,-4 23,-10 6,-6 10,-14 10,-23z"/>
  </g>
  <g id="snowflakes">
   <polygon id="rect3428" class="fil5" points="89,334 89,341 82,334 79,338 89,348 89,359 79,353 75,340 71,341 73,350 67,346 64,350 71,354 62,357 63,361 77,357 86,363 77,369 63,365 62,369 71,372 64,376 67,380 73,376 71,385 75,386 79,373 89,367 89,378 79,388 82,392 89,385 89,392 93,392 93,385 100,392 103,388 93,378 93,367 103,373 107,386 111,385 109,376 115,380 118,376 111,372 120,369 119,365 105,369 96,363 105,357 119,361 120,357 111,354 118,350 115,346 109,350 111,341 107,340 103,353 93,359 93,348 103,338 100,334 93,341 93,334 "/>
   <polygon id="rect3428_0" class="fil5" points="215,334 215,341 208,334 205,338 215,348 215,359 205,353 202,340 197,341 200,350 193,346 191,350 197,354 188,357 189,361 203,357 213,363 203,369 189,365 188,369 197,372 191,376 193,380 200,376 197,385 202,386 205,373 215,367 215,378 205,388 208,392 215,385 215,392 220,392 220,385 226,392 230,388 220,378 220,367 229,373 233,386 238,385 235,376 242,380 244,376 237,372 247,369 245,365 232,369 222,363 232,357 245,361 247,357 237,354 244,350 242,346 235,350 238,341 233,340 229,353 220,359 220,348 230,338 226,334 220,341 220,334 "/>
  </g>
 </g>
</svg>
