<?xml version="1.0" encoding="UTF-8"?>
<!DOCTYPE svg PUBLIC "-//W3C//DTD SVG 1.1//EN" "http://www.w3.org/Graphics/SVG/1.1/DTD/svg11.dtd">

<svg xmlns="http://www.w3.org/2000/svg" xml:space="preserve" width="480px" height="420px" version="1.1" style="shape-rendering:geometricPrecision; text-rendering:geometricPrecision; image-rendering:optimizeQuality; fill-rule:evenodd; clip-rule:evenodd"
viewBox="0 0 480 420"
 xmlns:xlink="http://www.w3.org/1999/xlink">
 <defs>
  <style type="text/css">
   <![CDATA[
    .fil6 {fill:none;fill-rule:nonzero}
    .fil3 {fill:#FEFEFE;fill-rule:nonzero}
    .fil2 {fill:#CCCCCC;fill-rule:nonzero}
    .fil5 {fill:#E6E6E6;fill-rule:nonzero}
    .fil0 {fill:#FFD153;fill-rule:nonzero}
    .fil4 {fill:#FFE8A9;fill-rule:nonzero}
    .fil1 {fill:white;fill-rule:nonzero}
   ]]>
  </style>
   <clipPath id="id0" style="clip-rule:nonzero">
    <path d="M340 0l0 2c-2,33 -17,58 -38,74 -21,16 -49,23 -76,23l-1 0c-20,27 -56,44 -96,51 -43,8 -91,5 -129,-6l0 -25c36,12 83,16 125,8 37,-7 69,-22 84,-46 2,-3 6,-6 11,-5 1,0 3,0 6,0 23,0 45,-6 62,-19 16,-12 27,-31 28,-56l0 -1 24 0zm-95 0c2,8 2,15 1,22 -1,14 -6,25 -14,34 -8,8 -18,14 -30,18 -8,3 -16,4 -25,4 -17,19 -41,31 -69,36 -35,7 -75,6 -108,0l0 -24c31,6 70,8 103,1 25,-5 46,-15 59,-32 2,-3 6,-5 11,-5 7,1 15,0 22,-3 8,-2 15,-6 19,-11 5,-5 8,-12 9,-20 0,-6 0,-12 -3,-20l25 0zm-93 0c1,3 2,6 2,8 2,12 0,23 -6,34 -6,11 -16,20 -30,28 0,0 -1,0 -1,0 -25,13 -63,20 -117,14l0 -24c50,6 85,1 106,-11 0,0 1,0 1,0 10,-5 17,-12 21,-18 3,-6 4,-13 3,-18 -1,-5 -3,-9 -6,-13l27 0z"/>
   </clipPath>
 </defs>
 <g id="Layer_x0020_1">
  <metadata id="CorelCorpID_0Corel-Layer"/>
  <path class="fil0" d="M175 137c2,2 2,6 0,8 -2,2 -6,2 -8,0l-63 -63c-2,-2 -2,-6 0,-8 3,-2 6,-2 9,0l62 63zm-33 67c4,0 6,3 6,6 0,3 -2,6 -6,6l-88 0c-4,0 -6,-3 -6,-6 0,-3 2,-6 6,-6l88 0zm225 -130c3,-2 6,-2 9,0 2,2 2,6 0,8l-63 63c-2,2 -6,2 -8,0 -2,-2 -2,-6 0,-8l62 -63zm-200 201c2,-2 6,-2 8,0 2,2 2,6 0,8l-62 63c-3,2 -6,2 -9,0 -2,-2 -2,-6 0,-8l63 -63zm-15 -108c3,2 4,5 3,8 -1,3 -5,4 -8,3l-33 -14c-3,-1 -4,-4 -3,-7 1,-3 5,-5 8,-3l33 13zm134 -83c1,-3 4,-4 7,-3 3,1 5,5 3,8l-13 33c-1,3 -5,4 -8,3 -3,-1 -4,-5 -3,-8l14 -33zm-89 214c1,-3 5,-4 8,-3 3,1 4,5 3,8l-14 33c-1,3 -4,4 -7,3 -3,-1 -5,-5 -4,-8l14 -33zm164 -144c3,-2 6,0 8,3 1,3 -1,6 -4,7l-32 14c-3,1 -7,0 -8,-3 -1,-3 0,-7 3,-8l33 -13zm-214 88c3,-1 7,0 8,3 1,3 0,7 -3,8l-33 14c-3,1 -6,-1 -8,-4 -1,-3 0,-6 3,-7l33 -14zm61 -125c1,3 0,7 -3,8 -3,1 -7,0 -8,-3l-13 -33c-2,-3 0,-6 3,-8 3,-1 6,0 8,4l13 32zm26 -93c0,-4 3,-6 6,-6 3,0 6,2 6,6l0 88c0,3 -3,6 -6,6 -3,0 -6,-3 -6,-6l0 -88zm6 260c41,0 74,-33 74,-74 0,-41 -33,-74 -74,-74 -41,0 -74,33 -74,74 0,41 33,74 74,74z"/>
  <g id="_228446240">
   <path class="fil1" d="M447 273c8,8 13,19 13,31 0,12 -5,24 -13,32 -8,8 -19,13 -32,13l-80 0 -66 0c-9,0 -16,-4 -21,-9l0 0c-6,-5 -9,-13 -9,-21 0,-8 3,-16 9,-21 5,-5 11,-8 19,-9l0 0c0,-3 0,-6 0,-9 0,-19 7,-36 20,-48 12,-13 29,-20 48,-20 17,0 32,6 44,16 11,9 18,21 22,34 1,0 2,-1 3,-1 4,-1 8,-1 11,-1 13,0 24,5 32,13z"/>
   <path class="fil2" d="M448 304c0,-9 -4,-17 -10,-23 -5,-6 -14,-10 -23,-10 -3,0 -5,1 -8,1 -1,1 -3,1 -4,2 0,0 0,0 0,1 0,2 0,3 0,5 0,3 0,6 0,9 -1,3 -1,5 -2,8 -1,3 -4,5 -7,4 -3,0 -5,-4 -4,-7 0,-2 1,-4 1,-7 0,-2 1,-4 1,-7 0,-1 0,-3 -1,-4 0,-2 0,-3 0,-5 0,0 0,0 0,0 -2,-14 -9,-25 -19,-34 -10,-8 -23,-13 -37,-13 -16,0 -30,6 -40,16 -10,10 -17,25 -17,40 0,3 0,5 1,7 0,3 0,5 1,7 1,3 -1,7 -4,7 -1,1 -2,1 -3,0 -1,0 -2,0 -2,0 -1,0 -2,0 -2,0 -5,0 -10,2 -13,5 -3,3 -5,8 -5,13 0,5 2,9 5,13l0 0 0 0c3,3 8,5 13,5l66 0 80 0c9,0 18,-4 23,-10 6,-6 10,-14 10,-23z"/>
  </g>
  <g style="clip-path:url(#id0)">
   <polygon class="fil3" points="-300,-300 640,-300 640,455 -300,455 "/>
   <g id="Layer_x0020_1_0">
    <metadata id="CorelCorpID_1Corel-Layer"/>
    <path id="1" class="fil4" d="M175 137c2,2 2,6 0,8 -2,2 -6,2 -8,0l-63 -63c-2,-2 -2,-6 0,-8 3,-2 6,-2 9,0l62 63zm-33 67c4,0 6,3 6,6 0,3 -2,6 -6,6l-88 0c-4,0 -6,-3 -6,-6 0,-3 2,-6 6,-6l88 0zm225 -130c3,-2 6,-2 9,0 2,2 2,6 0,8l-63 63c-2,2 -6,2 -8,0 -2,-2 -2,-6 0,-8l62 -63zm-200 201c2,-2 6,-2 8,0 2,2 2,6 0,8l-62 63c-3,2 -6,2 -9,0 -2,-2 -2,-6 0,-8l63 -63zm-15 -108c3,2 4,5 3,8 -1,3 -5,4 -8,3l-33 -14c-3,-1 -4,-4 -3,-7 1,-3 5,-5 8,-3l33 13zm134 -83c1,-3 4,-4 7,-3 3,1 5,5 3,8l-13 33c-1,3 -5,4 -8,3 -3,-1 -4,-5 -3,-8l14 -33zm-89 214c1,-3 5,-4 8,-3 3,1 4,5 3,8l-14 33c-1,3 -4,4 -7,3 -3,-1 -5,-5 -4,-8l14 -33zm164 -144c3,-2 6,0 8,3 1,3 -1,6 -4,7l-32 14c-3,1 -7,0 -8,-3 -1,-3 0,-7 3,-8l33 -13zm-214 88c3,-1 7,0 8,3 1,3 0,7 -3,8l-33 14c-3,1 -6,-1 -8,-4 -1,-3 0,-6 3,-7l33 -14zm61 -125c1,3 0,7 -3,8 -3,1 -7,0 -8,-3l-13 -33c-2,-3 0,-6 3,-8 3,-1 6,0 8,4l13 32zm26 -93c0,-4 3,-6 6,-6 3,0 6,2 6,6l0 88c0,3 -3,6 -6,6 -3,0 -6,-3 -6,-6l0 -88zm6 260c41,0 74,-33 74,-74 0,-41 -33,-74 -74,-74 -41,0 -74,33 -74,74 0,41 33,74 74,74z"/>
    <g id="_228446240">
     <path class="fil1" d="M447 273c8,8 13,19 13,31 0,12 -5,24 -13,32 -8,8 -19,13 -32,13l-80 0 -66 0c-9,0 -16,-4 -21,-9l0 0c-6,-5 -9,-13 -9,-21 0,-8 3,-16 9,-21 5,-5 11,-8 19,-9l0 0c0,-3 0,-6 0,-9 0,-19 7,-36 20,-48 12,-13 29,-20 48,-20 17,0 32,6 44,16 11,9 18,21 22,34 1,0 2,-1 3,-1 4,-1 8,-1 11,-1 13,0 24,5 32,13z"/>
     <path class="fil5" d="M448 304c0,-9 -4,-17 -10,-23 -5,-6 -14,-10 -23,-10 -3,0 -5,1 -8,1 -1,1 -3,1 -4,2 0,0 0,0 0,1 0,2 0,3 0,5 0,3 0,6 0,9 -1,3 -1,5 -2,8 -1,3 -4,5 -7,4 -3,0 -5,-4 -4,-7 0,-2 1,-4 1,-7 0,-2 1,-4 1,-7 0,-1 0,-3 -1,-4 0,-2 0,-3 0,-5 0,0 0,0 0,0 -2,-14 -9,-25 -19,-34 -10,-8 -23,-13 -37,-13 -16,0 -30,6 -40,16 -10,10 -17,25 -17,40 0,3 0,5 1,7 0,3 0,5 1,7 1,3 -1,7 -4,7 -1,1 -2,1 -3,0 -1,0 -2,0 -2,0 -1,0 -2,0 -2,0 -5,0 -10,2 -13,5 -3,3 -5,8 -5,13 0,5 2,9 5,13l0 0 0 0c3,3 8,5 13,5l66 0 80 0c9,0 18,-4 23,-10 6,-6 10,-14 10,-23z"/>
    </g>
   </g>
  </g>
  <path class="fil6" d="M340 0l0 2c-2,33 -17,58 -38,74 -21,16 -49,23 -76,23l-1 0c-20,27 -56,44 -96,51 -43,8 -91,5 -129,-6l0 -25c36,12 83,16 125,8 37,-7 69,-22 84,-46 2,-3 6,-6 11,-5 1,0 3,0 6,0 23,0 45,-6 62,-19 16,-12 27,-31 28,-56l0 -1 24 0zm-95 0c2,8 2,15 1,22 -1,14 -6,25 -14,34 -8,8 -18,14 -30,18 -8,3 -16,4 -25,4 -17,19 -41,31 -69,36 -35,7 -75,6 -108,0l0 -24c31,6 70,8 103,1 25,-5 46,-15 59,-32 2,-3 6,-5 11,-5 7,1 15,0 22,-3 8,-2 15,-6 19,-11 5,-5 8,-12 9,-20 0,-6 0,-12 -3,-20l25 0zm-93 0c1,3 2,6 2,8 2,12 0,23 -6,34 -6,11 -16,20 -30,28 0,0 -1,0 -1,0 -25,13 -63,20 -117,14l0 -24c50,6 85,1 106,-11 0,0 1,0 1,0 10,-5 17,-12 21,-18 3,-6 4,-13 3,-18 -1,-5 -3,-9 -6,-13l27 0z"/>
 </g>
</svg>
