<?xml version="1.0" encoding="UTF-8"?>
<!DOCTYPE svg PUBLIC "-//W3C//DTD SVG 1.1//EN" "http://www.w3.org/Graphics/SVG/1.1/DTD/svg11.dtd">

<svg xmlns="http://www.w3.org/2000/svg" xml:space="preserve" width="480px" height="420px" version="1.1" style="shape-rendering:geometricPrecision; text-rendering:geometricPrecision; image-rendering:optimizeQuality; fill-rule:evenodd; clip-rule:evenodd"
viewBox="0 0 480 420"
 xmlns:xlink="http://www.w3.org/1999/xlink">
 <defs>
  <style type="text/css">
   <![CDATA[
    .fil2 {fill:#E6E6E6}
    .fil3 {fill:#E6E6E6;fill-rule:nonzero}
    .fil0 {fill:#FFD153;fill-rule:nonzero}
    .fil1 {fill:white;fill-rule:nonzero}
   ]]>
  </style>
 </defs>
 <g id="Layer_x0020_1">
  <metadata id="CorelCorpID_0Corel-Layer"/>
  <path class="fil0" d="M376 338c2,2 2,6 0,8 -3,2 -6,2 -9,0l-62 -63c-2,-2 -2,-6 0,-8 2,-2 6,-2 8,0l63 63zm-201 -201c2,2 2,6 0,8 -2,2 -6,2 -8,0l-63 -63c-2,-2 -2,-6 0,-8 3,-2 6,-2 9,0l62 63zm251 67c4,0 6,3 6,6 0,3 -2,6 -6,6l-88 0c-4,0 -6,-3 -6,-6 0,-3 2,-6 6,-6l88 0zm-284 0c4,0 6,3 6,6 0,3 -2,6 -6,6l-88 0c-4,0 -6,-3 -6,-6 0,-3 2,-6 6,-6l88 0zm225 -130c3,-2 6,-2 9,0 2,2 2,6 0,8l-63 63c-2,2 -6,2 -8,0 -2,-2 -2,-6 0,-8l62 -63zm-200 201c2,-2 6,-2 8,0 2,2 2,6 0,8l-62 63c-3,2 -6,2 -9,0 -2,-2 -2,-6 0,-8l63 -63zm198 -19c4,1 5,4 4,7 -2,3 -5,5 -8,4l-33 -14c-3,-1 -4,-5 -3,-8 1,-3 5,-4 8,-3l32 14zm-213 -89c3,2 4,5 3,8 -1,3 -5,4 -8,3l-33 -14c-3,-1 -4,-4 -3,-7 1,-3 5,-5 8,-3l33 13zm134 -83c1,-3 4,-4 7,-3 3,1 5,5 3,8l-13 33c-1,3 -5,4 -8,3 -3,-1 -4,-5 -3,-8l14 -33zm-89 214c1,-3 5,-4 8,-3 3,1 4,5 3,8l-14 33c-1,3 -4,4 -7,3 -3,-1 -5,-5 -4,-8l14 -33zm164 -144c3,-2 6,0 8,3 1,3 -1,6 -4,7l-32 14c-3,1 -7,0 -8,-3 -1,-3 0,-7 3,-8l33 -13zm-214 88c3,-1 7,0 8,3 1,3 0,7 -3,8l-33 14c-3,1 -6,-1 -8,-4 -1,-3 0,-6 3,-7l33 -14zm149 89c2,3 0,7 -3,8 -3,1 -6,0 -7,-3l-14 -33c-1,-3 0,-7 3,-8 3,-1 7,0 8,3l13 33zm-88 -214c1,3 0,7 -3,8 -3,1 -7,0 -8,-3l-13 -33c-2,-3 0,-6 3,-8 3,-1 6,0 8,4l13 32zm26 -93c0,-4 3,-6 6,-6 3,0 6,2 6,6l0 88c0,3 -3,6 -6,6 -3,0 -6,-3 -6,-6l0 -88zm0 284c0,-3 3,-6 6,-6 3,0 6,3 6,6l0 71c0,3 -3,6 -6,6 -3,0 -6,-3 -6,-6l0 -71zm6 -24c41,0 74,-33 74,-74 0,-41 -33,-74 -74,-74 -41,0 -74,33 -74,74 0,41 33,74 74,74z"/>
  <g id="_228466928">
   <g>
    <path class="fil1" d="M395 337c0,-13 -5,-24 -13,-33 -9,-8 -20,-13 -33,-13 -4,0 -8,0 -12,1 -2,1 -5,2 -7,3 0,1 0,1 0,2 1,3 1,5 1,8 0,3 -1,7 -1,11 -1,4 -1,7 -2,11 -1,3 -4,5 -7,4 -4,-1 -5,-4 -5,-7 1,-3 2,-6 2,-10 1,-3 1,-6 1,-9 0,-3 0,-5 0,-7 -1,-2 -1,-4 -1,-6l0 0c-3,-19 -13,-35 -27,-47 -14,-12 -31,-19 -51,-19 -22,0 -41,9 -55,23 -15,14 -23,34 -23,56 0,3 0,6 0,9 1,4 1,7 2,10 1,3 -1,6 -4,7 -1,0 -2,0 -3,0 -1,0 -2,0 -3,0 -1,-1 -2,-1 -3,-1 -8,0 -14,3 -19,8 -5,5 -8,12 -8,19 0,7 3,14 8,18 5,5 11,8 19,8l89 0 109 0c13,0 24,-5 33,-13 8,-9 13,-20 13,-33zm-5 -41c10,10 17,25 17,41 0,16 -7,30 -17,41 -11,10 -25,17 -41,17l-109 0 -89 0c-11,0 -20,-4 -27,-11 -7,-7 -12,-17 -12,-27 0,-11 5,-20 12,-27 7,-7 16,-11 27,-11l0 0c0,-1 0,-2 -1,-3 0,-4 0,-8 0,-11 0,-25 10,-48 26,-64 17,-17 39,-27 64,-27 23,0 43,8 59,22 14,12 24,28 29,47 2,-1 4,-2 6,-2 5,-2 10,-2 15,-2 16,0 30,6 41,17zm-72 -4l0 0 0 0z"/>
   </g>
   <path class="fil2" d="M395 337c0,-13 -5,-24 -13,-33 -9,-8 -20,-13 -33,-13 -4,0 -8,0 -12,1 -2,1 -5,2 -7,3 0,1 0,1 0,2 1,3 1,5 1,8 0,3 -1,7 -1,11 -1,4 -1,7 -2,11 -1,3 -4,5 -7,4 -4,-1 -5,-4 -5,-7 1,-3 2,-6 2,-10 1,-3 1,-6 1,-9 0,-3 0,-5 0,-7 -1,-2 -1,-4 -1,-6l0 0 0 0c-3,-19 -13,-35 -27,-47 -14,-12 -31,-19 -51,-19 -22,0 -41,9 -55,23 -15,14 -23,34 -23,56 0,3 0,6 0,9 1,4 1,7 2,10 1,3 -1,6 -4,7 -1,0 -2,0 -3,0 -1,0 -2,0 -3,0 -1,-1 -2,-1 -3,-1 -8,0 -14,3 -19,8 -5,5 -8,12 -8,19 0,7 3,14 8,18 5,5 11,8 19,8l89 0 109 0c13,0 24,-5 33,-13 8,-9 13,-20 13,-33z"/>
   <g id="_228462632">
    <path class="fil3" d="M271 312c0,-9 -3,-18 -9,-24 -6,-5 -14,-9 -23,-9 -3,0 -6,0 -8,1 -2,0 -3,1 -5,1 0,1 1,1 1,1 0,2 0,4 0,6 0,2 0,5 -1,8 0,3 -1,6 -1,9 -1,3 -4,5 -8,4 -3,-1 -5,-4 -4,-7 1,-3 1,-5 2,-7 0,-3 0,-5 0,-7 0,-2 0,-3 0,-5 0,-1 -1,-3 -1,-4 0,0 0,-1 0,-1 -2,-13 -9,-25 -19,-33 -10,-9 -23,-14 -37,-14 -15,0 -29,6 -40,17 -10,10 -16,24 -16,40 0,2 0,4 0,7 0,2 1,4 1,7 1,3 -1,6 -4,7 -1,0 -2,0 -3,0 -1,0 -1,0 -2,-1 0,0 -1,0 -2,0 -5,0 -9,2 -13,6 -3,3 -5,7 -5,12 0,5 2,10 5,13l0 0 0 0c4,3 8,5 13,5l66 0 81 0c9,0 17,-3 23,-9 6,-6 9,-14 9,-23z"/>
    <path class="fil1" d="M270 280c8,8 13,19 13,32 0,12 -5,23 -13,31 -8,8 -19,13 -31,13l-81 0 -66 0c-8,0 -16,-3 -21,-9l0 0c-5,-5 -9,-12 -9,-21 0,-8 4,-15 9,-21 5,-5 12,-8 19,-8l0 -1c0,-3 0,-5 0,-8 0,-19 8,-36 20,-49 12,-12 29,-20 48,-20 17,0 33,6 45,17 10,8 18,20 21,33 1,0 3,0 4,-1 3,0 7,-1 11,-1 12,0 23,5 31,13zm1 32c0,-9 -3,-18 -9,-24 -6,-5 -14,-9 -23,-9 -3,0 -6,0 -8,1 -2,0 -3,1 -5,1 0,1 1,1 1,1 0,2 0,4 0,6 0,2 0,5 -1,8 0,3 -1,6 -1,9 -1,3 -4,5 -8,4 -3,-1 -5,-4 -4,-7 1,-3 1,-5 2,-7 0,-3 0,-5 0,-7 0,-2 0,-3 0,-5 0,-1 -1,-3 -1,-4 0,0 0,-1 0,-1 -2,-13 -9,-25 -19,-33 -10,-9 -23,-14 -37,-14 -15,0 -29,6 -40,17 -10,10 -16,24 -16,40 0,2 0,4 0,7 0,2 1,4 1,7 1,3 -1,6 -4,7 -1,0 -2,0 -3,0 -1,0 -1,0 -2,-1 0,0 -1,0 -2,0 -5,0 -9,2 -13,6 -3,3 -5,7 -5,12 0,5 2,10 5,13l0 0 0 0c4,3 8,5 13,5l66 0 81 0c9,0 17,-3 23,-9 6,-6 9,-14 9,-23z"/>
   </g>
  </g>
 </g>
</svg>
