<?xml version="1.0" encoding="utf-8"?>
<!-- Generator: Adobe Illustrator 22.0.1, SVG Export Plug-In . SVG Version: 6.00 Build 0)  -->
<svg version="1.1" id="Capa_1" xmlns="http://www.w3.org/2000/svg" xmlns:xlink="http://www.w3.org/1999/xlink" x="0px" y="0px"
	 viewBox="0 0 255.1 512" style="enable-background:new 0 0 255.1 512;" xml:space="preserve">
<style type="text/css">
	.st0{fill:#C5C5C7;}
</style>
<g>
	<g>
		<path class="st0" d="M166.8,11.3l-12.7,0l3.8,133.2l-15.3,0V11.3l-11.2,0v134h-12.7v-134l-12.3,0l0,134h-15l4.3-134H84.1L70,124.6
			c0,0-0.3,4.3-0.3,5.9c0,17.5,8.1,33.1,20.8,43.3c41.8,47.1,13.3,95.2,13.3,106.7c0,12.6,0,207.3,0,207.3h0c0,0.2,0,0.3-0.1,0.4
			c0,11.9,9.7,21.6,21.6,21.6c11.9,0,21.6-9.7,21.6-21.6c0-0.2-0.1-0.3-0.1-0.4h0c0,0,0-192.2,0-206.9c0-13.2-24.1-68.6,16.2-109.7
			c0-0.1,0.1-0.2,0.2-0.3c9.8-9.3,16.3-22.1,17.3-36.6c0.1-1,0-3.6,0-3.6L166.8,11.3z"/>
	</g>
</g>
</svg>
