<?xml version="1.0" encoding="utf-8"?>
<!-- Generator: Adobe Illustrator 22.0.1, SVG Export Plug-In . SVG Version: 6.00 Build 0)  -->
<svg version="1.1" id="Capa_1" xmlns="http://www.w3.org/2000/svg" xmlns:xlink="http://www.w3.org/1999/xlink" x="0px" y="0px"
	 viewBox="0 0 212.6 512" style="enable-background:new 0 0 212.6 512;" xml:space="preserve">
<style type="text/css">
	.st0{fill:#C5C5C7;}
</style>
<g>
	<g>
		<path class="st0" d="M142,488.1c0,0,0-144.2,0-158.5c0-13.1-0.4-327.3-0.4-327.3l-7.2,0c0,0-58.5,33-58.5,277.8
			c44.9,12.3,26,61.4,22.6,67.7c0,12.5,1,140.5,1,140.5l0.1,0c0,0.1-0.1,0.2-0.1,0.4c-0.1,11.8,9.5,21.3,21.2,21.2
			c11.7,0,21.3-9.5,21.2-21.2C142,488.4,142,488.3,142,488.1L142,488.1z"/>
	</g>
</g>
</svg>
